# Blender3D v249 OBJ File: TreeMed.blend
# www.blender3d.org
mtllib TreeHigh.mtl
v 0.071659 -0.000000 -0.070874
v 0.026727 0.000000 0.096816
v -0.096031 -0.000000 -0.025942
v 0.000785 1.507892 -0.000000
v 0.872034 -0.000000 -0.667239
v -0.661218 0.000000 0.866013
v -0.661218 -0.000000 -0.667239
vt 0.465022 0.000000
vt 1.000000 0.000000
vt 0.577351 1.000000
vt 0.000000 0.000000
vt 0.000000 1.000000
vt 1.000000 1.000000
vn 0.965393 0.033217 0.258676
vn -0.706717 0.033217 0.706716
vn -0.258676 0.033217 -0.965393
vn 0.000000 -1.000000 0.000000
usemtl None_arvoreTronco.jpg
s off
f 2/1/1 1/2/1 4/3/1
f 3/4/2 2/1/2 4/3/2
f 4/3/3 1/2/3 3/4/3
usemtl (null)
f 6/4/4 7/5/4 5/6/4
