/* XPM */ 
static const char * bt_about_xpm[] = {
"32 32 626 2",
"  	c None",
"! 	c #1A1A1A",
"# 	c #232323",
"$ 	c #292929",
"% 	c #2A2A2A",
"& 	c #2B2B2B",
"' 	c #2C2C2C",
"( 	c #2D2D2D",
") 	c #2E2E2E",
"* 	c #2F2F2F",
"+ 	c #252525",
", 	c #1E1E1E",
"- 	c #313131",
". 	c #323232",
"0 	c #333333",
"1 	c #343434",
"2 	c #353535",
"3 	c #363636",
"4 	c #373738",
"5 	c #363637",
"6 	c #373739",
"7 	c #38383B",
"8 	c #38383A",
"9 	c #39393B",
": 	c #3B3B3C",
"; 	c #3C3C3C",
"< 	c #3D3D3D",
"= 	c #3E3E3E",
"> 	c #3F3F3F",
"? 	c #404040",
"@ 	c #414141",
"A 	c #1D1D1D",
"B 	c #242424",
"C 	c #262626",
"D 	c #272727",
"E 	c #272728",
"F 	c #282829",
"G 	c #27272A",
"H 	c #28282D",
"I 	c #28282F",
"J 	c #272730",
"K 	c #272733",
"L 	c #272734",
"M 	c #282834",
"N 	c #292934",
"O 	c #2A2A32",
"P 	c #2C2C32",
"Q 	c #2E2E32",
"R 	c #2E2E30",
"S 	c #303031",
"T 	c #303030",
"U 	c #212121",
"V 	c #1A1A1B",
"W 	c #19191C",
"X 	c #1A1A20",
"Y 	c #1A1A25",
"Z 	c #18192A",
"[ 	c #181930",
"] 	c #181A36",
"^ 	c #17183A",
"_ 	c #17183C",
"` 	c #181A3A",
"a 	c #1A1C36",
"b 	c #1B1C31",
"c 	c #1D1E2C",
"d 	c #1F1F28",
"e 	c #212126",
"f 	c #222224",
"g 	c #232324",
"h 	c #1A1A1C",
"i 	c #19191E",
"j 	c #181823",
"k 	c #16172B",
"l 	c #141635",
"m 	c #131641",
"n 	c #11164C",
"o 	c #101654",
"p 	c #0F175C",
"q 	c #0F175F",
"r 	c #0E165E",
"s 	c #0F1659",
"t 	c #111651",
"u 	c #111547",
"v 	c #14163C",
"w 	c #151731",
"x 	c #171827",
"y 	c #191921",
"z 	c #19191F",
"{ 	c #171826",
"| 	c #151732",
"} 	c #121541",
"~ 	c #101655",
" !	c #0E1868",
"!!	c #0E1C77",
"#!	c #0D1F83",
"$!	c #0D228C",
"%!	c #0E2491",
"&!	c #0D2390",
"'!	c #0E2189",
"(!	c #0D1E7F",
")!	c #0D1A71",
"*!	c #0E1760",
"+!	c #10154C",
",!	c #14163B",
"-!	c #16172C",
".!	c #181822",
"0!	c #19191D",
"1!	c #191920",
"2!	c #171828",
"3!	c #131536",
"4!	c #0E1764",
"5!	c #0D2596",
"6!	c #0E2CA7",
"7!	c #1034B5",
"8!	c #1139BD",
"9!	c #123BC1",
":!	c #113BC0",
";!	c #1037B9",
"<!	c #0F31B0",
"=!	c #0E2AA1",
">!	c #0D228D",
"?!	c #0D1A74",
"@!	c #0F165A",
"A!	c #121542",
"B!	c #151730",
"C!	c #181824",
"D!	c #171727",
"E!	c #141538",
"F!	c #0F1551",
"G!	c #0E1A70",
"H!	c #0D228E",
"I!	c #0E2EA9",
"J!	c #123AC1",
"K!	c #1544D0",
"L!	c #184CDA",
"M!	c #1A51E0",
"N!	c #1A52E2",
"O!	c #1952E1",
"P!	c #194FDE",
"Q!	c #1649D7",
"R!	c #1340CA",
"S!	c #1035B8",
"T!	c #0D299E",
"U!	c #0C1E81",
"V!	c #0F1762",
"W!	c #121646",
"X!	c #151630",
"Y!	c #141634",
"Z!	c #11164F",
"[!	c #0D1971",
"]!	c #1033B5",
"^!	c #1443CE",
"_!	c #184FDF",
"`!	c #1D58E9",
"a!	c #205EEF",
"b!	c #2361F2",
"c!	c #255BD7",
"d!	c #2361EB",
"e!	c #2260F1",
"f!	c #1F5CED",
"g!	c #1B55E5",
"h!	c #174BD9",
"i!	c #133DC5",
"j!	c #0E2DA8",
"k!	c #0D2086",
"l!	c #181820",
"m!	c #16172E",
"n!	c #0E196A",
"o!	c #0C2392",
"p!	c #1035B7",
"q!	c #1647D4",
"r!	c #215FF0",
"s!	c #2665F5",
"t!	c #2969F7",
"u!	c #3B507D",
"v!	c #5B606C",
"w!	c #444B58",
"x!	c #2C5BC4",
"y!	c #2868F7",
"z!	c #2463F3",
"{!	c #1F5BEC",
"|!	c #194FDF",
"}!	c #133FC8",
"~!	c #0C1D80",
" #	c #14163A",
"!#	c #0F165B",
"##	c #0D1F85",
"$#	c #1545D1",
"%#	c #1C56E7",
"&#	c #2968F7",
"'#	c #2D6DF9",
"(#	c #3068E3",
")#	c #595E6A",
"*#	c white",
"+#	c #E0E0E0",
",#	c #3F4D6B",
"-#	c #306FFA",
".#	c #2C6BF8",
"0#	c #2666F6",
"1#	c #205DEE",
"2#	c #184FDE",
"3#	c #133DC4",
"4#	c #0D289D",
"5#	c #0D1A72",
"6#	c #10154B",
"7#	c #181821",
"8#	c #111548",
"9#	c #0D1970",
":#	c #0D289E",
";#	c #123EC7",
"<#	c #2F6EFA",
"=#	c #3573FA",
">#	c #3875F7",
"?#	c #454B59",
"@#	c #DDDDDD",
"A#	c #9FA0A2",
"B#	c #3D578F",
"C#	c #3775FB",
"D#	c #3271FA",
"E#	c #2D6CF9",
"F#	c #174AD8",
"G#	c #1034B6",
"H#	c #0C218B",
"I#	c #13163B",
"J#	c #171725",
"K#	c #101656",
"L#	c #0D1E83",
"M#	c #0F33B3",
"N#	c #1F5BED",
"O#	c #2767F6",
"P#	c #2E6EF9",
"Q#	c #3573FB",
"R#	c #3B77FB",
"S#	c #407BFC",
"T#	c #3E6ACA",
"U#	c #43516F",
"V#	c #415A91",
"W#	c #4076ED",
"X#	c #3E7AFC",
"Y#	c #3975FB",
"Z#	c #2B6BF9",
"[#	c #1B54E5",
"]#	c #133FC9",
"^#	c #0D289F",
"_#	c #0E1A6F",
"`#	c #16172A",
"a#	c #171724",
"b#	c #0F1761",
"c#	c #0D2492",
"d#	c #113AC0",
"e#	c #1951E1",
"f#	c #2261F2",
"g#	c #2B6BF8",
"h#	c #3371FA",
"i#	c #3A76FB",
"j#	c #3F72E5",
"k#	c #415D9A",
"l#	c #44609A",
"m#	c #45609A",
"n#	c #436ABE",
"o#	c #447EFC",
"p#	c #3E79FC",
"q#	c #3774FB",
"r#	c #2867F6",
"s#	c #1648D5",
"t#	c #0F30AE",
"u#	c #0D1D7D",
"v#	c #0D186A",
"w#	c #0D279B",
"x#	c #2565F5",
"y#	c #3674FB",
"z#	c #4173DE",
"{#	c #3A3F4A",
"|#	c #7B7B7D",
"}#	c #C3C3C3",
"~#	c #AEAEAE",
" $	c #495777",
"!$	c #4982FD",
"#$	c #427CFC",
"$$	c #3A77FB",
"%$	c #2A6AF8",
"&$	c #184EDD",
"'$	c #0D2087",
"($	c #101757",
")$	c #161729",
"*$	c #121645",
"+$	c #0E2AA2",
",$	c #1D59EA",
"-$	c #2F6FFA",
".$	c #4881FC",
"0$	c #4A78DE",
"1$	c #6B707B",
"2$	c #E1E1E1",
"3$	c #495877",
"4$	c #4C84FD",
"5$	c #457EFC",
"6$	c #3C79FB",
"7$	c #3472FB",
"8$	c #1950E0",
"9$	c #141537",
":$	c #19191B",
";$	c #0E2BA3",
"<$	c #1443CF",
"=$	c #3875FB",
">$	c #4C7FED",
"?$	c #5A5F6A",
"@$	c #4A5877",
"A$	c #457FFC",
"B$	c #3D79FB",
"C$	c #2C6CF9",
"D$	c #2362F2",
"E$	c #1139BE",
"F$	c #0F175D",
"G$	c #171829",
"H$	c #0D196D",
"I$	c #0E289E",
"J$	c #1341CC",
"K$	c #1C58E8",
"L$	c #2666F5",
"M$	c #2F6EF9",
"N$	c #3F7AFC",
"O$	c #4680FC",
"P$	c #4A7DED",
"Q$	c #595F6A",
"R$	c #4A82FD",
"S$	c #437DFC",
"T$	c #3B78FB",
"U$	c #3372FA",
"V$	c #1950DF",
"W$	c #1138BB",
"X$	c #0E218A",
"Y$	c #141636",
"Z$	c #171726",
"[$	c #1A1C44",
"]$	c #192270",
"^$	c #142C9C",
"_$	c #143FC7",
"`$	c #1B54E4",
"a$	c #3472FA",
"b$	c #3C78FB",
"c$	c #477AED",
"d$	c #485777",
"e$	c #467FFC",
"f$	c #3170FA",
"g$	c #1335B5",
"h$	c #18298B",
"i$	c #212763",
"j$	c #21233E",
"k$	c #191922",
"l$	c #242427",
"m$	c #3A3A46",
"n$	c #3A3C5D",
"o$	c #282F74",
"p$	c #1A2D96",
"q$	c #153ABD",
"r$	c #194EDD",
"s$	c #3D79FC",
"t$	c #4177EC",
"u$	c #585E6A",
"v$	c #465677",
"w$	c #1E58E9",
"x$	c #1645D0",
"y$	c #1533AD",
"z$	c #1E2C86",
"{$	c #303569",
"|$	c #404157",
"}$	c #44444A",
"~$	c #313132",
" %	c #1C1C1C",
"!%	c #5B5B5D",
"#%	c #56565E",
"$%	c #4A4B65",
"%%	c #363C74",
"&%	c #23318E",
"'%	c #1836B1",
"(%	c #1746D1",
")%	c #1D57E8",
"*%	c #3270FA",
"+%	c #3B72EB",
",%	c #585D6A",
"-%	c #445477",
".%	c #215EEF",
"0%	c #1A50E0",
"1%	c #153DC3",
"2%	c #1A31A0",
"3%	c #2A3381",
"4%	c #40436C",
"5%	c #515262",
"6%	c #59595D",
"7%	c #5C5C5D",
"8%	c #6A6A6B",
"9%	c #67676C",
":%	c #5D5E6F",
";%	c #4A4D77",
"<%	c #323B88",
"=%	c #1E34A1",
">%	c #173DC1",
"?%	c #1A4EDC",
"@%	c #3070FA",
"A%	c #336CE9",
"B%	c #585E6B",
"C%	c #E2E2E2",
"D%	c #425275",
"E%	c #1C55E6",
"F%	c #1846D1",
"G%	c #1938B3",
"H%	c #253595",
"I%	c #3C427F",
"J%	c #535573",
"K%	c #63636E",
"L%	c #69696B",
"M%	c #6B6B6B",
"N%	c #7A7A7B",
"O%	c #78787A",
"P%	c #70707A",
"Q%	c #60627D",
"R%	c #474D85",
"S%	c #2E3C96",
"T%	c #1E38AE",
"U%	c #1942C9",
"V%	c #1A4FDE",
"W%	c #2464F4",
"X%	c #2C58B8",
"Y%	c #737884",
"Z%	c #F9F9F9",
"[%	c #3C4455",
"]%	c #2B68EE",
"^%	c #1D56E8",
"_%	c #1949D6",
"`%	c #183CBD",
"a%	c #2338A3",
"b%	c #39428E",
"c%	c #535681",
"d%	c #696A7D",
"e%	c #75757B",
"f%	c #79797A",
"g%	c #7A7A7A",
"h%	c #898989",
"i%	c #888889",
"j%	c #848489",
"k%	c #787988",
"l%	c #64668B",
"m%	c #474E91",
"n%	c #2D3E9F",
"o%	c #1F3BB4",
"p%	c #1D58E8",
"q%	c #2454C4",
"r%	c #4D5158",
"s%	c #666C79",
"t%	c #313234",
"u%	c #313A50",
"v%	c #205CED",
"w%	c #1C54E4",
"x%	c #1949D5",
"y%	c #1A3EC1",
"z%	c #233AAA",
"{%	c #384398",
"|%	c #53588D",
"}%	c #6E6F8A",
"~%	c #7F7F89",
" &	c #868689",
"!&	c #888888",
"#&	c #999999",
"$&	c #989898",
"%&	c #979799",
"&&	c #909098",
"'&	c #818297",
"(&	c #686B96",
")&	c #4B529A",
"*&	c #3242A3",
"+&	c #233DB3",
",&	c #1B41C5",
"-&	c #1949D4",
".&	c #1B4FDA",
"0&	c #1F51CF",
"1&	c #2053D2",
"2&	c #2155D4",
"3&	c #2154D4",
"4&	c #1F52D0",
"5&	c #1D50D1",
"6&	c #1A4DDB",
"7&	c #1945CE",
"8&	c #1D3FBD",
"9&	c #283EAC",
":&	c #3C489F",
";&	c #575D98",
"<&	c #747596",
"=&	c #898997",
">&	c #949499",
"?&	c #989899",
"@&	c #393939",
"A&	c #A8A8A8",
"B&	c #A7A7A8",
"C&	c #A4A4A7",
"D&	c #9B9BA5",
"E&	c #8A8BA2",
"F&	c #7275A1",
"G&	c #565DA1",
"H&	c #3D4BA5",
"I&	c #2C41AF",
"J&	c #2140BB",
"K&	c #1C42C6",
"L&	c #1B46CE",
"M&	c #1A48D3",
"N&	c #1A4AD6",
"O&	c #1B4AD6",
"P&	c #1A47D1",
"Q&	c #1B44CB",
"R&	c #1E41C1",
"S&	c #2540B7",
"T&	c #3244AA",
"U&	c #4953A4",
"V&	c #6267A1",
"W&	c #7D7FA2",
"X&	c #9394A4",
"Y&	c #A0A0A6",
"Z&	c #A6A6A8",
"[&	c #A7A7A7",
"]&	c #B6B6B6",
"^&	c #B5B5B6",
"_&	c #B1B1B4",
"`&	c #A8A8B2",
"a&	c #999AAF",
"b&	c #8486AB",
"c&	c #6A6FA8",
"d&	c #525BA9",
"e&	c #3F4EAC",
"f&	c #3347B1",
"g&	c #2A43B5",
"h&	c #2642B9",
"i&	c #2341BB",
"j&	c #2441BB",
"k&	c #2843B8",
"l&	c #2E45B4",
"m&	c #3749AE",
"n&	c #4652AA",
"o&	c #5B63A8",
"p&	c #7579A9",
"q&	c #8D8FAD",
"r&	c #A1A2B1",
"s&	c #ADADB4",
"t&	c #B3B3B5",
"u&	c #B5B5B5",
"v&	c #C6C6C6",
"w&	c #C4C4C5",
"x&	c #C1C1C4",
"y&	c #BABAC2",
"z&	c #AEAFBF",
"{&	c #9B9DB9",
"|&	c #878AB5",
"}&	c #7278B1",
"~&	c #636BB0",
" '	c #5761AF",
"!'	c #4F5BB0",
"#'	c #4A57B0",
"$'	c #4B58B0",
"%'	c #515DAF",
"&'	c #5C65B0",
"''	c #6970B0",
"('	c #7B7FB3",
")'	c #9092B7",
"*'	c #A4A5BC",
"+'	c #B4B4C0",
",'	c #BEBEC3",
"-'	c #C3C3C5",
".'	c #C5C5C5",
"0'	c #434343",
"1'	c #D5D5D5",
"2'	c #D4D4D5",
"3'	c #D2D2D4",
"4'	c #CDCDD2",
"5'	c #C4C4CF",
"6'	c #B8B9CB",
"7'	c #AAACC6",
"8'	c #9FA1C4",
"9'	c #9598C0",
":'	c #8C90BE",
";'	c #888CBD",
"<'	c #898DBD",
"='	c #9093BF",
">'	c #999BC1",
"?'	c #A4A6C5",
"@'	c #B0B1C8",
"A'	c #BEBFCD",
"B'	c #C8C8D0",
"C'	c #CFCFD3",
"D'	c #D2D2D3",
"E'	c #D4D4D4",
"F'	c #464646",
"G'	c #E4E4E4",
"H'	c #E3E3E3",
"I'	c #E2E2E3",
"J'	c #E0E0E3",
"K'	c #DBDBE0",
"L'	c #D6D6DF",
"M'	c #CFCFDB",
"N'	c #CACBD9",
"O'	c #C6C7D9",
"P'	c #C3C4D7",
"Q'	c #C4C5D8",
"R'	c #C7C8D8",
"S'	c #CDCEDB",
"T'	c #D2D2DD",
"U'	c #D7D7DE",
"V'	c #DDDDE1",
"W'	c #E0E0E2",
"X'	c #E3E3E4",
"Y'	c #282828",
"Z'	c #EAEAEA",
"['	c #F3F3F3",
"]'	c #F2F2F3",
"^'	c #F1F1F2",
"_'	c #EFEFF1",
"`'	c #EEEEF1",
"a'	c #ECECF0",
"b'	c #EAEAEF",
"c'	c #E9E9EE",
"d'	c #EBEBEF",
"e'	c #EDEDF0",
"f'	c #EEEEF0",
"g'	c #F0F0F2",
"h'	c #F2F2F2",
"i'	c #5B5B5B",
"j'	c #5B5B5C",
"k'	c #5A5A5B",
"l'	c #5A5A5A",
"! # $ $ $ % % % % % & & & ' ' ' ' ' ( ( ( ( ( ) ) ) * * * * + ! ",
", - - . . 0 1 1 2 2 3 4 5 6 7 7 7 8 9 : : ; ; < = = > ? ? @ ? , ",
"A B B + C C D D E F G H I J K L M N O P Q R S T T - - . . 0 1 U ",
"! ! ! ! ! ! ! V W X Y Z [ ] ^ _ _ ` a b c d e f g B + + C C D A ",
"! ! ! ! ! V h i j k l m n o p q r s t u v w x y W V ! ! ! ! ! ! ",
"! ! ! ! V h z { | } ~  !!!#!$!%!&!'!(!)!*!+!,!-!.!0!V ! ! ! ! ! ",
"! ! ! ! h 1!2!3!+!4!(!5!6!7!8!9!:!;!<!=!>!?!@!A!B!C!0!V ! ! ! ! ",
"! ! ! V i D!E!F!G!H!I!J!K!L!M!N!O!P!Q!R!S!T!U!V!W!X!.!W V ! ! ! ",
"! ! V 0!C!Y!Z![!5!]!^!_!`!a!b!c!d!e!f!g!h!i!j!k!V!A!-!y h ! ! ! ",
"! ! h l!m!W!n!o!p!q!g!r!s!t!u!v!w!x!y!z!{!|!}!6!~!s  #{ i V ! ! ",
"! V 0!{  #!###<!$#%#b!&#'#(#)#*#+#,#-#.#0#1#2#3#4#5#6#X!7#h ! ! ",
"! V 1!m!8#9#:#;#N!e!t!<#=#>#?#@#A#B#C#D#E#0#{!F#G#H#r I#J#W ! ! ",
"! h .!Y!K#L#M#F#N#O#P#Q#R#S#T#U#V#W#X#Y#D#Z#z![#]#^#_#W!`#i V ! ",
"! W a#,!b#c#d#e#f#g#h#i#j#k#l#m#m#n#o#p#q#-#r#{!s#t#u#Z!B!l!h ! ",
"V 0!x m v#w#]#%#x#P#y#p#z#{#|#}#~# $!$#$$$h#%$r!&$p!'$($Y!.!h ! ",
"V i )$*$G!+$^!,$O#-$C#S#.$0$1$*#2$3$4$5$6$7$.#b!8$8!>!p 9$j :$! ",
"V i )$W![!;$<$,$O#-#=$S#.$>$?$*#2$@$4$A$B$Q#C$D$e#E$H!F$9$C!:$! ",
"V 0!G$A!H$I$J$K$L$M$y#N$O$P$Q$*#2$3$R$S$T$U$g#e!V$W$X$s Y$j h ! ",
"! W Z$[$]$^$_$`$z!C$a$b$S$c$)#*#2$d$e$S#Y#f$&#1#h!g$h$i$j$k$h ! ",
"! l$m$n$o$p$q$r$a!t!-#C#s$t$u$*#2$v$S#R#a$'#x#w$x$y$z${$|$}$~$ %",
"D !%#%$%%%&%'%(%)%z!g#*%C#+%,%*#2$-%i#Q#<#y!.%0%1%2%3%4%5%6%7%$ ",
"' 8%9%:%;%<%=%>%?%{!x#g#@%A%B%*#C%D%D#P#t!f#E%F%G%H%I%J%K%L%M%' ",
"* N%O%P%Q%R%S%T%U%V%f!W%t!X%Y%*#Z%[%]%O#e!^%_%`%a%b%c%d%e%f%g%* ",
". h%i%j%k%l%m%n%o%U%?%p%q%& r%s%s%t%u%v%w%x%y%z%{%|%}%~% &!&h%. ",
"3 #&$&%&&&'&(&)&*&+&,&-&.&0&1&2&3&4&5&6&7&8&9&:&;&<&=&>&?&#&#&3 ",
"@&A&A&B&C&D&E&F&G&H&I&J&K&L&M&N&O&P&Q&R&S&T&U&V&W&X&Y&Z&[&A&A&@&",
"; ]&]&]&^&_&`&a&b&c&d&e&f&g&h&i&j&k&l&m&n&o&p&q&r&s&t&u&]&]&]&; ",
"? v&v&v&v&w&x&y&z&{&|&}&~& '!'#'$'%'&'''(')'*'+','-'.'v&v&v&v&? ",
"0'1'1'1'1'1'2'3'4'5'6'7'8'9':';'<'='>'?'@'A'B'C'D'E'1'1'1'1'1'0'",
"F'G'G'G'G'G'G'H'I'J'K'L'M'N'O'P'Q'R'S'T'U'V'W'X'G'G'G'G'G'G'G'F'",
"Y'Z'['['['['['['[']'^'_'`'a'b'c'c'd'e'f'g'^'h'['['['['['['['Z'Y'",
"! T i'i'i'i'i'i'i'i'i'i'i'j'j'k'k'j'i'i'i'i'i'i'i'i'i'i'i'l'* ! "};