/* XPM */ 
static const char * bt_config_xpm[] = {
"32 32 118 2",
"  	c None",
"! 	c #1A1A1A",
"# 	c #232323",
"$ 	c #292929",
"% 	c #2A2A2A",
"& 	c #2B2B2B",
"' 	c #2C2C2C",
"( 	c #2D2D2D",
") 	c #2E2E2E",
"* 	c #2F2F2F",
"+ 	c #252525",
", 	c #1E1E1E",
"- 	c #313131",
". 	c #323232",
"0 	c #333333",
"1 	c #343434",
"2 	c #353535",
"3 	c #363636",
"4 	c #373737",
"5 	c #383838",
"6 	c #393939",
"7 	c #3A3A3A",
"8 	c #3B3B3B",
"9 	c #3C3C3C",
": 	c #3D3D3D",
"; 	c #3E3E3E",
"< 	c #3F3F3F",
"= 	c #404040",
"> 	c #414141",
"? 	c #1D1D1D",
"@ 	c #242424",
"A 	c #262626",
"B 	c #272727",
"C 	c #282828",
"D 	c #303030",
"E 	c #212121",
"F 	c #1B1B1B",
"G 	c #1C1C1C",
"H 	c #1F1F1F",
"I 	c #202020",
"J 	c #222222",
"K 	c #181818",
"L 	c #131313",
"M 	c #111111",
"N 	c #171717",
"O 	c #090909",
"P 	c #0A0A0A",
"Q 	c #080808",
"R 	c #121212",
"S 	c #0F0F0F",
"T 	c #050505",
"U 	c #505050",
"V 	c #434343",
"W 	c #040404",
"X 	c #0D0D0D",
"Y 	c #010101",
"Z 	c #575757",
"[ 	c #5B5B5B",
"] 	c #585858",
"^ 	c #0E0E0E",
"_ 	c #4E4E4E",
"` 	c #030303",
"a 	c #656565",
"b 	c #676767",
"c 	c #424242",
"d 	c #535353",
"e 	c #626262",
"f 	c #717171",
"g 	c #727272",
"h 	c #101010",
"i 	c #4D4D4D",
"j 	c #646464",
"k 	c #6C6C6C",
"l 	c #747474",
"m 	c #7C7C7C",
"n 	c #7E7E7E",
"o 	c #4C4C4C",
"p 	c #060606",
"q 	c #0B0B0B",
"r 	c #6B6B6B",
"s 	c #828282",
"t 	c #878787",
"u 	c #898989",
"v 	c #191919",
"w 	c #848484",
"x 	c #8C8C8C",
"y 	c #616161",
"z 	c #858585",
"{ 	c #070707",
"| 	c black",
"} 	c #737373",
"~ 	c #141414",
" !	c #707070",
"!!	c #636363",
"#!	c #565656",
"$!	c #4F4F4F",
"%!	c #0C0C0C",
"&!	c #454545",
"'!	c #484848",
"(!	c #5C5C5C",
")!	c #7A7A7A",
"*!	c #555555",
"+!	c #999999",
",!	c #464646",
"-!	c #8B8B8B",
".!	c #020202",
"0!	c #474747",
"1!	c #A8A8A8",
"2!	c #B6B6B6",
"3!	c #C6C6C6",
"4!	c #B3B3B3",
"5!	c #909090",
"6!	c #7F7F7F",
"7!	c #D5D5D5",
"8!	c #E4E4E4",
"9!	c #EAEAEA",
":!	c #F3F3F3",
";!	c #5A5A5A",
"! # $ $ $ % % % % % & & & ' ' ' ' ' ( ( ( ( ( ) ) ) * * * * + ! ",
", - - . . 0 1 1 2 2 3 4 4 5 6 6 6 6 7 8 8 9 9 : ; ; < = = > = , ",
"? @ @ + A A B B B C C $ % % & & ' ( ( ) * * D D D - - . . 0 1 E ",
"! ! ! ! ! ! ! ! ! F G G ? , , , , H I I E E J # # @ + + A A B ? ",
"! ! ! ! ! ! ! ! ! ! ! ! ! K L M M L N ! ! ! ! ! ! ! ! ! ! ! ! ! ",
"! ! ! ! ! ! ! ! ! ! ! ! ! O P L L P Q ! ! ! ! ! ! ! ! ! ! ! ! ! ",
"! ! ! ! ! ! ! ! ! R S ! ! T > U U V W ! ! S R ! ! ! ! ! ! ! ! ! ",
"! ! ! ! ! ! ! ! X T O P N Y Z [ [ ] Y N P O T X ! ! ! ! ! ! ! ! ",
"! ! ! ! ! ! ! ^ O V _ , ` O a b b a P ` H _ V O X ! ! ! ! ! ! ! ",
"! ! ! ! ! ! L T c d [ e < E f g g f E < e [ d V T R ! ! ! ! ! ! ",
"! ! ! ! ! ! h Q i [ j k g l m n n m l g k j [ o p h ! ! ! ! ! ! ",
"! ! ! ! ! ! ! q F e r l m s t u u t s m l r e v q ! ! ! ! ! ! ! ",
"! ! ! ! ! ! ! N W 9 g m w x y 4 4 y x z m g 8 W N ! ! ! ! ! ! ! ",
"! ! ! ! K { W | O H } s x . O ^ ^ O * x s } H Q | W Q K ! ! ! ! ",
"! ! ! ! ~ Q > Z a  !m t !!O v ! ! v O e t m  !a #!= { ~ ! ! ! ! ",
"! ! ! ! R S $![ b g n u 5 ^ ! ! ! ! ^ 5 u n g b [ $!S R ! ! ! ! ",
"! ! ! ! R S $![ b g n u 5 h , H H , h 5 u n g b [ $!S R ! ! ! ! ",
"! ! ! ! ~ Q > Z a  !m t !!q ( * * ( q e t m  !a Z > Q ~ ! ! ! ! ",
"! ! ! @ D ^ T Y P I } s x 0 X I I %!- x s } I P Y T ^ 1 $ F ! ! ",
"! + = i i i i &!{ : g m w x e 5 5 e x w m g : { &!i i i i '!- G ",
"B (!(!(!(!(!(!J ? e r l m s t u u t s m l r e ? J (!(!(!(!(!(!$ ",
"' r r r r r V q i [ j r g } m n n m } g k j [ i q V r r r r r ' ",
"* )!)!)!)!)!Z Q c d [ e : E f g g f E : e [ d V Q *!)!)!)!)!)!* ",
". u u u u u u V X V _ I q ^ a b b a X q I _ V X > u u u u u u . ",
"3 +!+!+!+!+!+!+!,!P ^ D -!.!] [ [ Z Y u - ^ P 0!+!+!+!+!+!+!+!3 ",
"6 1!1!1!1!1!1!1!1!f y 1!1!^ V U U > S 1!1!y f 1!1!1!1!1!1!1!1!6 ",
"9 2!2!2!2!2!2!2!2!2!2!2!2!$ M F F M ( 2!2!2!2!2!2!2!2!2!2!2!2!9 ",
"= 3!3!3!3!3!3!3!3!3!3!3!3!4!5!6!6!5!4!3!3!3!3!3!3!3!3!3!3!3!3!= ",
"V 7!7!7!7!7!7!7!7!7!7!7!7!7!7!7!7!7!7!7!7!7!7!7!7!7!7!7!7!7!7!V ",
",!8!8!8!8!8!8!8!8!8!8!8!8!8!8!8!8!8!8!8!8!8!8!8!8!8!8!8!8!8!8!,!",
"C 9!:!:!:!:!:!:!:!:!:!:!:!:!:!:!:!:!:!:!:!:!:!:!:!:!:!:!:!:!9!C ",
"! D [ [ [ [ [ [ [ [ [ [ [ [ [ [ [ [ [ [ [ [ [ [ [ [ [ [ [ ;!* ! "};