/* XPM */ 
static const char * bt_close_program_xpm[] = {
"32 32 359 2",
"  	c None",
"! 	c #1A1A1A",
"# 	c #232323",
"$ 	c #2B2B2B",
"% 	c #2D2D2D",
"& 	c #2F2F2F",
"' 	c #303030",
"( 	c #313131",
") 	c #323232",
"* 	c #333333",
"+ 	c #343434",
", 	c #353535",
"- 	c #262626",
". 	c #1E1E1E",
"0 	c #3A3A3A",
"1 	c #434343",
"2 	c #494949",
"3 	c #4C4C4C",
"4 	c #4D4D4D",
"5 	c #4E4E4E",
"6 	c #4F4F4F",
"7 	c #505050",
"8 	c #515151",
"9 	c #525252",
": 	c #535353",
"; 	c #545454",
"< 	c #555555",
"= 	c #565656",
"> 	c #575757",
"? 	c #4A4A4A",
"@ 	c #1F1F1F",
"A 	c #3D3D3D",
"B 	c #565151",
"C 	c #6B5D5D",
"D 	c #716262",
"E 	c #736363",
"F 	c #746464",
"G 	c #756565",
"H 	c #766665",
"I 	c #766766",
"J 	c #776767",
"K 	c #786867",
"L 	c #796868",
"M 	c #796969",
"N 	c #7A6969",
"O 	c #746666",
"P 	c #635E5E",
"Q 	c #3E3E3E",
"R 	c #4A4646",
"S 	c #846060",
"T 	c #C26A6A",
"U 	c #D26D6D",
"V 	c #D26E6E",
"W 	c #D26F6E",
"X 	c #D2716E",
"Y 	c #D3726F",
"Z 	c #D3736F",
"[ 	c #D3746F",
"] 	c #D4736F",
"^ 	c #D4726F",
"_ 	c #D4716F",
"` 	c #D4706F",
"a 	c #D47070",
"b 	c #D37070",
"c 	c #C66F6F",
"d 	c #8D6A6A",
"e 	c #595555",
"f 	c #3B3B3B",
"g 	c #222222",
"h 	c #1C1C1C",
"i 	c #2E2E2E",
"j 	c #5A4D4D",
"k 	c #BA6666",
"l 	c #F17070",
"m 	c #F97575",
"n 	c #F97675",
"o 	c #F97775",
"p 	c #F97975",
"q 	c #F97B75",
"r 	c #F97D75",
"s 	c #F97E75",
"t 	c #F97F75",
"u 	c #F17272",
"v 	c #BC6A6A",
"w 	c #615555",
"x 	c #181818",
"y 	c #5C4E4E",
"z 	c #C46565",
"{ 	c #F57474",
"| 	c #FB7878",
"} 	c #FB7978",
"~ 	c #FB7B78",
" !	c #FB7D78",
"!!	c #FB7F78",
"#!	c #FB8078",
"$!	c #FB8278",
"%!	c #FB8378",
"&!	c #F57575",
"'!	c #C66A6A",
"(!	c #635555",
")!	c #131313",
"*!	c #272727",
"+!	c #5A4B4B",
",!	c #C36565",
"-!	c #F27474",
".!	c #F87878",
"0!	c #F87978",
"1!	c #F87C78",
"2!	c #F87E78",
"3!	c #F88078",
"4!	c #F88278",
"5!	c #F88378",
"6!	c #F89281",
"7!	c #F8A293",
"8!	c #F88C7A",
"9!	c #F37676",
":!	c #C46A6A",
";!	c #605252",
"<!	c #2C2C2C",
"=!	c #151515",
">!	c #0E0E0E",
"?!	c #554646",
"@!	c #BF6565",
"A!	c #EF7474",
"B!	c #F57878",
"C!	c #F57B78",
"D!	c #F57F78",
"E!	c #F57C78",
"F!	c #F58178",
"G!	c #F58378",
"H!	c #F58478",
"I!	c #F5BAAD",
"J!	c #F5F5F5",
"K!	c #F5A190",
"L!	c #EF7676",
"M!	c #C16A6A",
"N!	c #0F0F0F",
"O!	c #080808",
"P!	c #1D1D1D",
"Q!	c #514343",
"R!	c #BB6565",
"S!	c #EC7474",
"T!	c #F27878",
"U!	c #F2BDB8",
"V!	c #F2E2E0",
"W!	c #F29A8E",
"X!	c #F27F78",
"Y!	c #F28278",
"Z!	c #F28478",
"[!	c #F28578",
"]!	c #F2B9AA",
"^!	c #F2F2F2",
"_!	c #F2A28D",
"`!	c #EC7676",
"a!	c #BE6A6A",
"b!	c #584A4A",
"c!	c #212121",
"d!	c #090909",
"e!	c #060606",
"f!	c #423838",
"g!	c #A85555",
"h!	c #D66262",
"i!	c #DC6565",
"j!	c #DC7C74",
"k!	c #DCDBDB",
"l!	c #DCDCDC",
"m!	c #DCD4D2",
"n!	c #DC7266",
"o!	c #DC6F66",
"p!	c #DC7366",
"q!	c #DCA594",
"r!	c #DC8F77",
"s!	c #DC6666",
"t!	c #D66464",
"u!	c #A95A5A",
"v!	c #473F3F",
"w!	c #1B1B1B",
"x!	c #070707",
"y!	c #050505",
"z!	c #322E2E",
"{!	c #934646",
"|!	c #C05050",
"}!	c #C55252",
"~!	c #C5B3B1",
" #	c #C5C5C5",
"!#	c #C57F70",
"##	c #C55953",
"$#	c #C55C53",
"%#	c #C55F53",
"&#	c #C56153",
"'#	c #C5917E",
"(#	c #C57C60",
")#	c #C55353",
"*#	c #C05151",
"+#	c #944949",
",#	c #373333",
"-#	c #171717",
".#	c #030303",
"0#	c #803636",
"1#	c #AB3F3F",
"2#	c #B0655E",
"3#	c #B0B0B0",
"4#	c #B08F89",
"5#	c #B04340",
"6#	c #B04740",
"7#	c #B04A40",
"8#	c #B04D40",
"9#	c #B04F40",
":#	c #B07E68",
";#	c #B0694A",
"<#	c #B0655F",
"=#	c #AB4040",
">#	c #813939",
"?#	c #282828",
"@#	c #111111",
"A#	c #040404",
"B#	c #020202",
"C#	c #0A0A0A",
"D#	c #6E2727",
"E#	c #992D2D",
"F#	c #9D6B66",
"G#	c #9D9D9D",
"H#	c #9D402F",
"I#	c #9D2F2F",
"J#	c #9D342F",
"K#	c #9D372F",
"L#	c #9D3B2F",
"M#	c #9D3D2F",
"N#	c #9D6B53",
"O#	c #9D5735",
"P#	c #982E2E",
"Q#	c #6E2828",
"R#	c #0C0C0C",
"S#	c #010101",
"T#	c #0D0D0D",
"U#	c #601616",
"V#	c #8E1A1A",
"W#	c #927674",
"X#	c #929292",
"Y#	c #928E8E",
"Z#	c #921C1C",
"[#	c #921E1C",
"]#	c #92231C",
"^#	c #92271C",
"_#	c #922B1C",
"`#	c #925D40",
"a#	c #92471D",
"b#	c #8E1B1B",
"c#	c #5F1717",
"d#	c black",
"e#	c #580808",
"f#	c #900A0A",
"g#	c #959291",
"h#	c #959595",
"i#	c #95766F",
"j#	c #950B0B",
"k#	c #950F0B",
"l#	c #95150B",
"m#	c #951B0B",
"n#	c #955730",
"o#	c #953D0B",
"p#	c #959191",
"q#	c #8F0A0A",
"r#	c #570808",
"s#	c #550101",
"t#	c #9A0202",
"u#	c #A1A1A1",
"v#	c #A16456",
"w#	c #A10202",
"x#	c #A10A02",
"y#	c #A11102",
"z#	c #A13902",
"{#	c #A16336",
"|#	c #A12902",
"}#	c #510000",
"~#	c #9C0000",
" $	c #A59C9B",
"!$	c #A5A5A5",
"#$	c #A5837B",
"$$	c #A50000",
"%$	c #A50100",
"&$	c #A50900",
"'$	c #A51000",
"($	c #A51600",
")$	c #A59B9A",
"*$	c #490000",
"+$	c #960000",
",$	c #A06C66",
"-$	c #A0A0A0",
".$	c #A09E9D",
"0$	c #A00000",
"1$	c #A00300",
"2$	c #A00700",
"3$	c #450000",
"4$	c #8F0000",
"5$	c #98372C",
"6$	c #989898",
"7$	c #980100",
"8$	c #980000",
"9$	c #470000",
":$	c #4C0000",
";$	c #880000",
"<$	c #900000",
"=$	c #909090",
">$	c #906C64",
"?$	c #4A0000",
"@$	c #810000",
"A$	c #88544E",
"B$	c #888888",
"C$	c #882007",
"D$	c #480000",
"E$	c #7A0000",
"F$	c #800000",
"G$	c #807A79",
"H$	c #808080",
"I$	c #807B7A",
"J$	c #460000",
"K$	c #730000",
"L$	c #790000",
"M$	c #797979",
"N$	c #793727",
"O$	c #050000",
"P$	c #6D0000",
"Q$	c #720000",
"R$	c #72180D",
"S$	c #727272",
"T$	c #726360",
"U$	c #722715",
"V$	c #720100",
"W$	c #0D0000",
"X$	c #440000",
"Y$	c #670000",
"Z$	c #6B0000",
"[$	c #6B524E",
"]$	c #6B6B6B",
"^$	c #150101",
"_$	c #610000",
"`$	c #650000",
"a$	c #650C01",
"b$	c #655B59",
"c$	c #656565",
"d$	c #161616",
"e$	c #1C0808",
"f$	c #430000",
"g$	c #5C0000",
"h$	c #5F0000",
"i$	c #251414",
"j$	c #3F0000",
"k$	c #550000",
"l$	c #580000",
"m$	c #2C2727",
"n$	c #340000",
"o$	c #373737",
"p$	c #383232",
"q$	c #392626",
"r$	c #392323",
"s$	c #392222",
"t$	c #392322",
"u$	c #464646",
"! # $ % & ' ' ' ' ' ( ( ( ) ) ) ) ) * * * * * + + + , , * ( - ! ",
". + 0 1 2 3 4 4 5 5 6 7 7 8 9 9 9 9 : : : ; ; < = = > = 8 ? 1 @ ",
"@ % A B C D E E E E E F G G H H I J J K L L M M M N M O P 5 Q # ",
". $ R S T U V V V W W X Y Z Z [ [ Z ] ] ^ _ ` a a a b c d e f g ",
"h i j k l m m m n o p q r s t t t t s r q p o n m m m u v w ) . ",
"x $ y z { | | | } ~  !!!#!$!%!%!%!%!$!#!!! !~ } | | | &!'!(!' ! ",
")!*!+!,!-!.!.!.!0!1!2!3!4!5!6!7!7!8!5!4!3!2!1!0!.!.!.!9!:!;!<!=!",
">!g ?!@!A!B!B!C!D!E!D!F!G!H!I!J!J!K!H!G!F!D!E!D!C!B!B!L!M!y *!N!",
"O!P!Q!R!S!T!T!U!V!W!X!Y!Z![!]!^!^!_![!Z!Y!X!W!V!U!T!T!`!a!b!c!d!",
"e!x f!g!h!i!j!k!l!m!n!o!n!p!q!l!l!r!p!n!o!n!m!l!k!j!s!t!u!v!w!x!",
"y!)!z!{!|!}!~! # #!###$#%#&#'# # #(#&#%#$###!# # #~!)#*#+#,#-#e!",
".#N!# 0#1#2#3#3#4#5#6#7#8#9#:#3#3#;#9#8#7#6#5#4#3#3#<#=#>#?#@#A#",
"B#C#x D#E#F#G#G#H#I#J#K#L#M#N#G#G#O#M#L#K#J#I#H#G#G#F#P#Q#h R#.#",
"S#y!T#U#V#W#X#Y#Z#Z#[#]#^#_#`#X#X#a#_#^#]#[#Z#Z#Y#X#W#b#c#N!e!S#",
"d#S#A#e#f#g#h#i#j#j#j#k#l#m#n#h#h#o#m#l#k#j#j#j#i#h#p#q#r#y!B#d#",
"d#d#d#s#t#u#u#v#w#w#w#w#x#y#z#{#{#|#y#x#w#w#w#w#v#u#u#t#s#S#d#d#",
"d#d#d#}#~# $!$#$$$$$$$$$%$&$'$($($'$&$%$$$$$$$$$#$!$)$~#}#d#d#d#",
"d#d#d#*$+$,$-$.$0$0$0$0$0$0$1$2$2$1$0$0$0$0$0$0$.$-$,$+$*$d#d#d#",
"d#d#d#3$4$5$6$6$7$8$8$8$8$8$8$8$8$8$8$8$8$8$8$7$6$6$5$4$9$d#d#d#",
"d#d#d#:$;$<$=$=$>$<$<$<$<$<$<$<$<$<$<$<$<$<$<$>$=$=$<$;$:$d#d#d#",
"d#d#d#?$@$;$A$B$B$C$;$;$;$;$;$;$;$;$;$;$;$;$C$B$B$A$;$@$?$d#d#d#",
"d#d#d#D$E$F$F$G$H$I$F$F$F$F$F$F$F$F$F$F$F$F$I$H$G$F$F$E$D$d#d#d#",
"d#d#d#J$K$L$L$L$M$M$M$N$L$L$L$L$L$L$L$L$N$M$M$M$L$L$L$K$J$d#d#d#",
"d#d#O$3$P$Q$Q$Q$R$S$S$S$T$U$V$Q$Q$V$U$T$S$S$S$R$Q$Q$Q$P$3$O$d#d#",
"d#y!W$X$Y$Z$Z$Z$Z$Z$[$]$]$]$]$]$]$]$]$]$]$[$Z$Z$Z$Z$Z$Y$X$W$y!d#",
"d#>!^$X$_$`$`$`$`$`$`$a$b$c$c$c$c$c$c$b$a$`$`$`$`$`$`$_$X$^$>!d#",
"d#d$e$f$g$h$h$h$h$h$h$h$h$h$h$h$h$h$h$h$h$h$h$h$h$h$h$g$f$e$d$d#",
"d#c!i$j$k$l$l$l$l$l$l$l$l$l$l$l$l$l$l$l$l$l$l$l$l$l$l$k$j$i$c!d#",
"d#$ m$n$f$9$9$9$9$9$9$9$9$9$9$9$9$9$9$9$9$9$9$9$9$9$9$f$n$m$$ d#",
"d#o$o$p$q$r$s$s$s$s$s$s$t$t$t$t$t$t$t$t$s$s$s$s$s$s$r$q$p$o$o$d#",
"d#A u$u$u$u$u$u$u$u$u$u$u$u$u$u$u$u$u$u$u$u$u$u$u$u$u$u$u$u$A d#",
"d#d#d#d#d#d#d#d#d#d#d#d#d#d#d#d#d#d#d#d#d#d#d#d#d#d#d#d#d#d#d#d#"};