/* XPM */ 
static const char * bt_dynamic_objects_mode_xpm[] = {
"32 32 111 2",
"  	c None",
"! 	c #1A1A1A",
"# 	c #222222",
"$ 	c #292929",
"% 	c #2A2A2A",
"& 	c #2B2B2B",
"' 	c #2C2C2C",
"( 	c #2D2D2D",
") 	c #2E2E2E",
"* 	c #2F2F2F",
"+ 	c #242424",
", 	c #1E1E1E",
"- 	c #313131",
". 	c #323232",
"0 	c #333333",
"1 	c #343434",
"2 	c #353535",
"3 	c #363636",
"4 	c #373737",
"5 	c #383838",
"6 	c #393939",
"7 	c #3A3A3A",
"8 	c #3B3B3B",
"9 	c #3C3C3C",
": 	c #3D3D3D",
"; 	c #3E3E3E",
"< 	c #3F3F3F",
"= 	c #404040",
"> 	c #414141",
"? 	c #1D1D1D",
"@ 	c #252525",
"A 	c #262626",
"B 	c #272727",
"C 	c #282828",
"D 	c #303030",
"E 	c #212121",
"F 	c #1B1B1B",
"G 	c #1C1C1C",
"H 	c #1F1F1F",
"I 	c #202020",
"J 	c #232323",
"K 	c #151515",
"L 	c #141414",
"M 	c #191919",
"N 	c #080808",
"O 	c #010101",
"P 	c #030303",
"Q 	c #121212",
"R 	c #101010",
"S 	c #171717",
"T 	c #969696",
"U 	c #7E7E7E",
"V 	c #777777",
"W 	c #747474",
"X 	c #808080",
"Y 	c #868686",
"Z 	c #707070",
"[ 	c #6D6D6D",
"] 	c #7D7D7D",
"^ 	c #4B4B4B",
"_ 	c #515151",
"` 	c #626262",
"a 	c #828282",
"b 	c #020202",
"c 	c #4A4A4A",
"d 	c #0E0E0E",
"e 	c #7C7C7C",
"f 	c #959595",
"g 	c #424242",
"h 	c #161616",
"i 	c #7A7A7A",
"j 	c #0C0C0C",
"k 	c #939393",
"l 	c #4C4C4C",
"m 	c #676767",
"n 	c #8D8D8D",
"o 	c #050505",
"p 	c #0A0A0A",
"q 	c #181818",
"r 	c #111111",
"s 	c #525252",
"t 	c #949494",
"u 	c #595959",
"v 	c #040404",
"w 	c #888888",
"x 	c #5C5C5C",
"y 	c #919191",
"z 	c #898989",
"{ 	c #585858",
"| 	c #6B6B6B",
"} 	c #434343",
"~ 	c #838383",
" !	c #797979",
"!!	c #737373",
"#!	c #5F5F5F",
"$!	c #6F6F6F",
"%!	c #717171",
"&!	c #8F8F8F",
"'!	c #606060",
"(!	c #8A8A8A",
")!	c #999999",
"*!	c #A8A8A8",
"+!	c #B6B6B6",
",!	c #C6C6C6",
"-!	c #D5D5D5",
".!	c #464646",
"0!	c #E4E4E4",
"1!	c #EAEAEA",
"2!	c #F3F3F3",
"3!	c #5B5B5B",
"4!	c #5A5A5A",
"! # $ $ $ % % % % % & & & ' ' ' ' ' ( ( ( ( ( ) ) ) * * * * + ! ",
", - - . . 0 1 1 2 2 3 4 4 5 6 6 6 6 7 8 8 9 9 : ; ; < = = > = , ",
"? + + @ A A B B B C C $ % % & & ' ( ( ) * * D D D - - . . 0 1 E ",
"! ! ! ! ! ! ! ! ! F G G ? , , , , H I I E E # J J + @ @ A A B ? ",
"! ! ! ! ! ! ! ! ! ! ! ! ! ! ! ! ! ! ! ! ! ! ! ! ! ! ! ! ! ! ! ! ",
"! ! ! ! ! ! ! ! ! ! ! ! ! ! ! ! ! ! ! ! ! ! ! ! ! ! ! ! ! ! ! ! ",
"! ! ! ! K L L L L L L L L L L L L L L L L L L L L L L K ! ! ! ! ",
"! ! M N O P P P P P P P P P P P P P P P P P P P P P P O N M ! ! ",
"! ! Q N & ) ) ) ) ) ) ) ) ) ) ) ) ) ) ) ) ) ) ) ) ) ) & N Q ! ! ",
"! ! R S : : : : : : : : : : : : : : : : : : : : : : : : S R ! ! ",
"! ! R S T T T T T T T T T T T T T T T T T T T T T T T T S R ! ! ",
"! ! R S T T T T T T T T T T T T T T T T T T T T T T T T S R ! ! ",
"! ! R S T U V T T T T W X T T T Y Z T T T T [ ] T T T T S R ! ! ",
"! ! R S T ^ 1 T T T T $ _ T T T ` ? T T T a b , T T T T S R ! ! ",
"! ! R S T ^ 1 T T T T $ _ T T T ` ? T T T c 8 d e T T T S R ! ! ",
"! ! R S T ^ 1 T T T T $ _ T T T ` ? T T f Q W g g T T T S R ! ! ",
"! ! R S T ^ 1 T T T T $ _ T T T ` ? T T [ h T i j k T T S R ! ! ",
"! ! R S T ^ 1 T T T T $ _ T T T ` ? T T 1 l T T ! m T T S R ! ! ",
"! ! R S T ^ 1 T T T T 1 8 T T T ^ A T n o p d d o ) T T q r ! ! ",
"! @ C M T ^ 1 T T T T s h t T f J g T u # n n n U v w T M ( - G ",
"B x 6 ! T ^ d % % % g y E d 5 Q q z T H { T T T T A s T ! 6 x $ ",
"' | } ! T ~ Z Z Z Z  !T f !!#!$!k T f %!&!T T T T ~ e T ! } | ' ",
"* i l F T T T T T T T T T T T T T T T T T T T T T T T T F l i * ",
". z '!p (!T T T T T T T T T T T T T T T T T T T T T T (!p '!z . ",
"3 )!T ? b o o o o o o o o o o o o o o o o o o o o o o b ? T )!3 ",
"6 *!*!*!z ~ ~ ~ ~ ~ ~ ~ ~ ~ ~ ~ ~ ~ ~ ~ ~ ~ ~ ~ ~ ~ ~ z *!*!*!6 ",
"9 +!+!+!+!+!+!+!+!+!+!+!+!+!+!+!+!+!+!+!+!+!+!+!+!+!+!+!+!+!+!9 ",
"= ,!,!,!,!,!,!,!,!,!,!,!,!,!,!,!,!,!,!,!,!,!,!,!,!,!,!,!,!,!,!= ",
"} -!-!-!-!-!-!-!-!-!-!-!-!-!-!-!-!-!-!-!-!-!-!-!-!-!-!-!-!-!-!} ",
".!0!0!0!0!0!0!0!0!0!0!0!0!0!0!0!0!0!0!0!0!0!0!0!0!0!0!0!0!0!0!.!",
"B 1!2!2!2!2!2!2!2!2!2!2!2!2!2!2!2!2!2!2!2!2!2!2!2!2!2!2!2!2!1!B ",
"! * 3!3!3!3!3!3!3!3!3!3!3!3!3!3!3!3!3!3!3!3!3!3!3!3!3!3!3!4!) ! "};