/* XPM */ 
static const char * bt_edit_character_xpm[] = {
"32 32 334 2",
"  	c None",
"! 	c #1A1A1A",
"# 	c #232323",
"$ 	c #292929",
"% 	c #2A2A2A",
"& 	c #2B2B2B",
"' 	c #212121",
"( 	c #191919",
") 	c #111111",
"* 	c #161616",
"+ 	c #1D1D1D",
", 	c #262626",
"- 	c #2D2D2D",
". 	c #2E2E2E",
"0 	c #2F2F2F",
"1 	c #252525",
"2 	c #1E1E1E",
"3 	c #313131",
"4 	c #323232",
"5 	c #333333",
"6 	c #1C1C1C",
"7 	c #353535",
"8 	c #363636",
"9 	c #0C0C0C",
": 	c #404040",
"; 	c #414141",
"< 	c #343434",
"= 	c #272727",
"> 	c #3C3C3C",
"? 	c #3D3D3D",
"@ 	c #3E3E3E",
"A 	c #3F3F3F",
"B 	c #242424",
"C 	c #0B0B0B",
"D 	c #1B1B1B",
"E 	c #282828",
"F 	c #070707",
"G 	c #2C2C2C",
"H 	c #474747",
"I 	c #505050",
"J 	c #595959",
"K 	c #626262",
"L 	c #696969",
"M 	c #383838",
"N 	c #141414",
"O 	c #303030",
"P 	c #080808",
"Q 	c #101010",
"R 	c #181818",
"S 	c #222222",
"T 	c #6B6B6B",
"U 	c #747474",
"V 	c #6A6A6A",
"W 	c #171717",
"X 	c #040404",
"Y 	c #0E0E0E",
"Z 	c #7E7E7E",
"[ 	c #868686",
"] 	c #151515",
"^ 	c black",
"_ 	c #0F0F0F",
"` 	c #050505",
"a 	c #878787",
"b 	c #2C2A25",
"c 	c #32312F",
"d 	c #494949",
"e 	c #616161",
"f 	c #1C1A16",
"g 	c #1E1912",
"h 	c #362D1E",
"i 	c #74603F",
"j 	c #B29460",
"k 	c #9B8053",
"l 	c #574931",
"m 	c #2A241A",
"n 	c #2B271F",
"o 	c #030303",
"p 	c #18140D",
"q 	c #675434",
"r 	c #B99962",
"s 	c #EEC782",
"t 	c #F4CD8A",
"u 	c #F5CE8D",
"v 	c #F5CE8C",
"w 	c #F2CA88",
"x 	c #C8A76C",
"y 	c #BE9C62",
"z 	c #453926",
"{ 	c #3F3D38",
"| 	c #838383",
"} 	c #121212",
"~ 	c #131313",
" !	c #020202",
"!!	c #231C10",
"#!	c #69583A",
"$!	c #827F7B",
"%!	c #979591",
"&!	c #625643",
"'!	c #F7D394",
"(!	c #F7D498",
")!	c #F7D497",
"*!	c #655A47",
"+!	c #908D88",
",!	c #75716B",
"-!	c #8F7851",
".!	c #937848",
"0!	c #1F1D19",
"1!	c #0F0C07",
"2!	c #E9BB6C",
"3!	c #C7A366",
"4!	c #615745",
"5!	c #615849",
"6!	c #BBA175",
"7!	c #EECF97",
"8!	c #EFD19B",
"9!	c #FADAA1",
":!	c #AD9772",
";!	c #635B4E",
"<!	c #C9A76C",
"=!	c #EFC275",
">!	c #AE8B4F",
"?!	c #0B0A08",
"@!	c #43351E",
"A!	c #EEBF70",
"B!	c #F0C57B",
"C!	c #F3CB86",
"D!	c #F6D191",
"E!	c #F8D69C",
"F!	c #938161",
"G!	c #998768",
"H!	c #FCDFAB",
"I!	c #FADAA2",
"J!	c #F7D598",
"K!	c #F5CF8D",
"L!	c #F2C983",
"M!	c #F0C378",
"N!	c #EABB6C",
"O!	c #19150D",
"P!	c #555555",
"Q!	c #614D2B",
"R!	c #EEC071",
"S!	c #F1C67C",
"T!	c #F3CB87",
"U!	c #F6D192",
"V!	c #F9D79D",
"W!	c #41392B",
"X!	c #ECD3A6",
"Y!	c #FDE1AF",
"Z!	c #FADBA5",
"[!	c #F8D599",
"]!	c #F5CF8E",
"^!	c #F0C478",
"_!	c #EDBE6D",
"`!	c #1C170D",
"a!	c #312716",
"b!	c #F3CB85",
"c!	c #F5D090",
"d!	c #DCBE88",
"e!	c #4B4131",
"f!	c #FCDEAA",
"g!	c #FBDDA8",
"h!	c #FAD9A1",
"i!	c #F2C982",
"j!	c #EFC377",
"k!	c #E0B366",
"l!	c #1A150D",
"m!	c #6D6D6D",
"n!	c #1B160D",
"o!	c #EDBD6D",
"p!	c #F2C881",
"q!	c #F4CE8B",
"r!	c #E8C68B",
"s!	c #332C20",
"t!	c #AF9870",
"u!	c #E4C590",
"v!	c #F3CC88",
"w!	c #F1C77E",
"x!	c #EFC174",
"y!	c #B08C4E",
"z!	c #1A1711",
"{!	c #787878",
"|!	c #15110A",
"}!	c #B28E4F",
"~!	c #EEC072",
" #	c #F1C57C",
"!#	c #F3CA84",
"##	c #F4CE8C",
"$#	c #C6A875",
"%#	c #7F6D4D",
"&#	c #97815B",
"'#	c #F4CD89",
"(#	c #F2C882",
")#	c #F0C479",
"*#	c #EDBF6F",
"+#	c #554324",
",#	c #848484",
"-#	c #202020",
".#	c #201A10",
"0#	c #E1B366",
"1#	c #F4CC89",
"2#	c #F2C880",
"3#	c #F0C47A",
"4#	c #B18D4F",
"5#	c #1D1913",
"6#	c #909090",
"7#	c #484848",
"8#	c #383734",
"9#	c #4B3C23",
":#	c #E8B96B",
";#	c #D2AA65",
"<#	c #3B301E",
"=#	c #3C311F",
">#	c #3B311E",
"?#	c #CEA45D",
"@#	c #221C13",
"A#	c #464646",
"B#	c #0D0D0D",
"C#	c #999999",
"D#	c #393939",
"E#	c #5C5C5C",
"F#	c #646464",
"G#	c #44423F",
"H#	c #2E261A",
"I#	c #C29B57",
"J#	c #EDBE6E",
"K#	c #EEC173",
"L#	c #EEBF71",
"M#	c #8A6F3F",
"N#	c #242018",
"O#	c #545454",
"P#	c #606060",
"Q#	c #585858",
"R#	c #4F4F4F",
"S#	c #1F1F1F",
"T#	c #4D4D4D",
"U#	c #090909",
"V#	c #9A9A9A",
"W#	c #454545",
"X#	c #6C6C6C",
"Y#	c #7B7B7B",
"Z#	c #727272",
"[#	c #312C25",
"]#	c #332B1D",
"^#	c #625030",
"_#	c #987843",
"`#	c #896D3E",
"a#	c #54452C",
"b#	c #2A2319",
"c#	c #45433E",
"d#	c #777777",
"e#	c #707070",
"f#	c #686868",
"g#	c #535353",
"h#	c #4C4C4C",
"i#	c #8E8E8E",
"j#	c #949494",
"k#	c #939393",
"l#	c #797979",
"m#	c #5D5B59",
"n#	c #656464",
"o#	c #828282",
"p#	c #959595",
"q#	c #8A8A8A",
"r#	c #7C7C7C",
"s#	c #767676",
"t#	c #6F6F6F",
"u#	c #565656",
"v#	c #8C8C8C",
"w#	c #8F8F8F",
"x#	c #9B9B9B",
"y#	c #A0A0A0",
"z#	c #A6A6A6",
"{#	c #ABABAB",
"|#	c #A8A8A8",
"}#	c #A3A3A3",
"~#	c #9D9D9D",
" $	c #989898",
"!$	c #929292",
"#$	c #818181",
"$$	c #3B3B3B",
"%$	c #7A7A7A",
"&$	c #656565",
"'$	c #919191",
"($	c #969696",
")$	c #9E9E9E",
"*$	c #A2A2A2",
"+$	c #A5A5A5",
",$	c #A7A7A7",
"-$	c #A4A4A4",
".$	c #9C9C9C",
"0$	c #979797",
"1$	c #8B8B8B",
"2$	c #4E4E4E",
"3$	c #898989",
"4$	c #717171",
"5$	c #5E5E5E",
"6$	c #A1A1A1",
"7$	c #9F9F9F",
"8$	c #5D5D5D",
"9$	c #4B4B4B",
":$	c #5F5F5F",
";$	c #A9A9A9",
"<$	c #AAAAAA",
"=$	c #7D7D7D",
">$	c #B6B6B6",
"?$	c #B4B4B4",
"@$	c #B3B3B3",
"A$	c #B2B2B2",
"B$	c #B5B5B5",
"C$	c #C6C6C6",
"D$	c #C3C3C3",
"E$	c #C2C2C2",
"F$	c #C1C1C1",
"G$	c #C0C0C0",
"H$	c #BFBFBF",
"I$	c #C4C4C4",
"J$	c #C5C5C5",
"K$	c #434343",
"L$	c #D5D5D5",
"M$	c #D3D3D3",
"N$	c #D1D1D1",
"O$	c #D0D0D0",
"P$	c #CFCFCF",
"Q$	c #CECECE",
"R$	c #D2D2D2",
"S$	c #D4D4D4",
"T$	c #B7B7B7",
"U$	c #4A4A4A",
"V$	c #E4E4E4",
"W$	c #373737",
"X$	c #EAEAEA",
"Y$	c #F3F3F3",
"Z$	c #5B5B5B",
"[$	c #5A5A5A",
"! # $ $ $ % % % % % & & & % ' ( ) * + , - - - . . . 0 0 0 0 1 ! ",
"2 3 3 4 4 5 6 & 7 7 8 4 ) 9 ( & : ; < ' ) = > ? @ @ A : : ; : 2 ",
"+ B B 1 , , C D = E ( F D G 7 @ H I J K L M N E O 3 3 4 4 5 < ' ",
"! ! ! ! ! ! P Q R F P R S G 7 @ H I J K T U V D W B 1 1 , , = + ",
"! ! ! ! ! ! X Y ) X Q ( S G 7 @ H I J K T U Z [ ] ( ! ! ! ! ! ! ",
"! ! ! ! ! ( ^ _ ) ` Q ( S G 7 @ H I J K T U Z a ( ( ! ! ! ! ! ! ",
"! ! ! ! ! R ^ ) ) ` Q ( S G 3 G b c d e T U Z a ( ( ! ! ! ! ! ! ",
"! ! ! ! ! * ^ ) ) ` Q ( f g h i j k l m n J Z a ( ( ! ! ! ! ! ! ",
"! ! ! ! ! N o Q ) X Y p q r s t u v w x y z { | ( ( ! ! ! ! ! ! ",
"! ! ! ! ! } ~ Y )  !!!#!$!%!&!'!(!)!*!+!,!-!.!0!Y ( ! ! ! ! ! ! ",
"! ! ! ! ! Q $ C ) 1!2!3!4!5!6!7!8!9!:!;!5!<!=!>!?!( ! ! ! ! ! ! ",
"! ! ! ! ! Y : F W @!A!B!C!D!E!F!G!H!I!J!K!L!M!N!O!! ! ! ! ! ! ! ",
"! ! ! ! ! Y P!o N Q!R!S!T!U!V!W!X!Y!Z![!]!L!^!_!`!! ! ! ! ! ! ! ",
"! ! ! ! ! Q e P W a!A!B!b!c!d!e!f!g!h!)!u i!j!k!l!! ! ! ! ! ! ! ",
"! ! ! ! ! Q m!_ W n!o!j!p!q!r!s!t!u![!D!v!w!x!y!z!! ! ! ! ! ! ! ",
"! ! ! ! ! Y {!W } |!}!~! #!###$#%#&#c!'#(#)#*#+#9 ! ! ! ! ! ! ! ",
"! ! ! ! ! C ,#-#` -#.#0#=!S!i!T!1#1#C!2#3#~!4#5#) C ! ! ! ! ! ! ",
"! ! ! ! ! F 6#% = 7#8#9#:#;#<#=#=#=#>#j!R!?#@#A#: R B#! ! ! ! ! ",
"! ! ! B 5 o C#D#7 E#F#G#H#I#J#R!K#K#L#o!M#N#O#P#Q#R#S#' $ D ! ! ",
"! 1 : T#d U#V#W#D#X#U Y#Z#[#]#^#_#`#a#b#c#Y#d#e#f#e g#N T#7#3 6 ",
"= E#h#~ P ] V#g#X Q % | i#j#k#l#m#n#o#p#6#q#| r#s#t#f#( u#E#E#$ ",
"G T T : } v#V#V#O#) {!w#p#x#y#z#{#|#}#~# $!$v#[ #$Y#s#$$d T T G ",
"0 %$%$%$: + V#&$* Z '$($V#)$*$+$|#,$-$y#.$0$k#w#1$[ o#2$7#%$%$0 ",
"4 3$3$3$4$] V#5$> p# $x#)$y#*$-$+$+$}#6$7$.$C#0$j#'$i#8$9$3$3$4 ",
"8 C#C#C#T $ V#d#, 7$y#*$}#-$+$z#z#z#+$+$-$*$6$7$)$.$x#T 2$C#C#8 ",
"D#|#|#|#:$; V#6#B#;$;$<$<$<$<${#{#{#{#<$<$<$<$;$;$;$|#=$2$|#|#D#",
"> >$>$>$h#J V#V#Q +$?$?$@$@$@$A$A$A$@$@$@$@$?$?$B$>$>$i#2$>$>$> ",
": C$C$C$8 m!V#V#& j#D$E$F$G$H$H$H$H$H$G$F$E$D$I$J$C$C$*$T#C$C$: ",
"K$L$L$L$2 A#u#u## r#L$M$N$O$P$P$Q$P$P$O$N$R$S$L$L$L$L$T$U$L$L$K$",
"A#V$V$V$| _ ( ( ( - 7 8 W$W$W$M M M M M M M M M M M M M t#V$V$A#",
"E X$Y$Y$Y$Y$Y$Y$Y$Y$Y$Y$Y$Y$Y$Y$Y$Y$Y$Y$Y$Y$Y$Y$Y$Y$Y$Y$Y$Y$X$E ",
"! O Z$Z$Z$Z$Z$Z$Z$Z$Z$Z$Z$Z$Z$Z$Z$Z$Z$Z$Z$Z$Z$Z$Z$Z$Z$Z$Z$[$0 ! "};