/* XPM */ 
static const char * bt_edit_script_global_xpm[] = {
"32 32 301 2",
"  	c None",
"! 	c #1A1A1A",
"# 	c #232323",
"$ 	c #292929",
"% 	c #2A2A2A",
"& 	c #2B2B2B",
"' 	c #2C2C2C",
"( 	c #2D2D2D",
") 	c #2E2E2E",
"* 	c #2F2F2F",
"+ 	c #252525",
", 	c #1E1E1E",
"- 	c #313131",
". 	c #323232",
"0 	c #333333",
"1 	c #343434",
"2 	c #353535",
"3 	c #363636",
"4 	c #373737",
"5 	c #383838",
"6 	c #393939",
"7 	c #3A3A3A",
"8 	c #3B3B3B",
"9 	c #3C3C3C",
": 	c #3D3D3D",
"; 	c #3E3E3E",
"< 	c #3F3F3F",
"= 	c #404040",
"> 	c #414141",
"? 	c #1D1D1D",
"@ 	c #242424",
"A 	c #262626",
"B 	c #0B0B0B",
"C 	c #050505",
"D 	c #0C0C0C",
"E 	c #212121",
"F 	c #101010",
"G 	c #131313",
"H 	c #272727",
"I 	c #595959",
"J 	c #6C6C6C",
"K 	c #969696",
"L 	c #737373",
"M 	c #5C5C5C",
"N 	c #4C4C4C",
"O 	c #929292",
"P 	c #161616",
"Q 	c #909090",
"R 	c #0F0F0F",
"S 	c #666666",
"T 	c #727272",
"U 	c #5A5A5A",
"V 	c #4A4A4A",
"W 	c #121212",
"X 	c #5F5F5F",
"Y 	c #444444",
"Z 	c #858585",
"[ 	c #808080",
"] 	c #828282",
"^ 	c #5E5E5E",
"_ 	c #696969",
"` 	c #717171",
"a 	c #4F5257",
"b 	c #42454A",
"c 	c #181818",
"d 	c #8E8E8E",
"e 	c #494949",
"f 	c #202020",
"g 	c #111111",
"h 	c #919191",
"i 	c #6E6E6E",
"j 	c #67686B",
"k 	c #111A28",
"l 	c #03112E",
"m 	c #0D2B6D",
"n 	c #083BA8",
"o 	c #073AA7",
"p 	c #082668",
"q 	c #0E1C39",
"r 	c #030B1B",
"s 	c #646568",
"t 	c #4F4F4F",
"u 	c #0A1B19",
"v 	c #03871F",
"w 	c #02BF17",
"x 	c #1159E8",
"y 	c #145CF8",
"z 	c #165DF8",
"{ 	c #125AF8",
"| 	c #058E5B",
"} 	c #076C2C",
"~ 	c #2E353F",
" !	c #797979",
"!!	c #8B8B8B",
"#!	c #0E331E",
"$!	c #01D70F",
"%!	c #00FF00",
"&!	c #03D020",
"'!	c #1764D7",
"(!	c #1F63F9",
")!	c #2064F9",
"*!	c #1A5EF0",
"+!	c #02D610",
",!	c #03B225",
"-!	c #101F23",
".!	c #454545",
"0!	c #7A7A7A",
"1!	c #1C342C",
"2!	c #01C419",
"3!	c #04D01B",
"4!	c #2666E8",
"5!	c #2B6CFA",
"6!	c #296AFA",
"7!	c #2267E8",
"8!	c #05BB28",
"9!	c #039739",
":!	c #222834",
";!	c #171717",
"<!	c #0A0B0F",
"=!	c #026127",
">!	c #00FB00",
"?!	c #198084",
"@!	c #3270F3",
"A!	c #3573FB",
"B!	c #3372FA",
"C!	c #207AAD",
"D!	c #00FE00",
"E!	c #025C2B",
"F!	c #1B1B1B",
"G!	c #222222",
"H!	c #040B1B",
"I!	c #0D51E2",
"J!	c #03CF18",
"K!	c #03E112",
"L!	c #14A466",
"M!	c #2E72CE",
"N!	c #3D79FB",
"O!	c #407BFC",
"P!	c #3572EC",
"Q!	c #0AC132",
"R!	c #01E909",
"S!	c #032615",
"T!	c #071B48",
"U!	c #0E5EC2",
"V!	c #00FC00",
"W!	c #09BA33",
"X!	c #3875FB",
"Y!	c #4780FC",
"Z!	c #4A82FC",
"[!	c #1B9479",
"]!	c #037920",
"^!	c #4D4D4D",
"_!	c #323233",
"`!	c #083086",
"a!	c #145CE9",
"b!	c #0B9A54",
"c!	c #1E828E",
"d!	c #3E79FB",
"e!	c #4F86FD",
"f!	c #558AFD",
"g!	c #3A75E8",
"h!	c #159C63",
"i!	c #0EA853",
"j!	c #01BB16",
"k!	c #484848",
"l!	c #1C1C1C",
"m!	c #242A35",
"n!	c #0942BF",
"o!	c #175DF8",
"p!	c #1A63BF",
"q!	c #00F701",
"r!	c #08C226",
"s!	c #3A73E3",
"t!	c #4C83FD",
"u!	c #568AFD",
"v!	c #5E91FE",
"w!	c #417CFC",
"x!	c #3774FB",
"y!	c #256CD2",
"z!	c #01EA07",
"{!	c #01D00F",
"|!	c #6B6B6B",
"}!	c #222837",
"~!	c #0A47CD",
" #	c #2061E7",
"!#	c #01E605",
"##	c #04D912",
"$#	c #3A77DF",
"%#	c #4C84FD",
"&#	c #578BFE",
"'#	c #6192FE",
"(#	c #209979",
")#	c #0FB544",
"*#	c #05D41C",
"+#	c #01D010",
",#	c #47484C",
"-#	c #083699",
".#	c #106BB8",
"0#	c #05C826",
"1#	c #09CC24",
"2#	c #2C899A",
"3#	c #5287FC",
"4#	c #588CFE",
"5#	c #5288FD",
"6#	c #417BDE",
"7#	c #01F003",
"8#	c #01BF18",
"9#	c #898989",
":#	c #6D6D6D",
";#	c #0D275F",
"<#	c #089A65",
"=#	c #00FD00",
">#	c #2E8A9F",
"?#	c #4E85FD",
"@#	c #4982FC",
"A#	c #3D7AE8",
"B#	c #06D41A",
"C#	c #077E2A",
"D#	c #999999",
"E#	c #959595",
"F#	c #0E172C",
"G#	c #088D74",
"H#	c #07D31C",
"I#	c #337FC7",
"J#	c #437DFC",
"K#	c #3B77FB",
"L#	c #257BB2",
"M#	c #02E709",
"N#	c #0B3421",
"O#	c #A8A8A8",
"P#	c #444952",
"Q#	c #0A407C",
"R#	c #01DC10",
"S#	c #2279AC",
"T#	c #3674FB",
"U#	c #3976FB",
"V#	c #3271FA",
"W#	c #2C6CFA",
"X#	c #1976AC",
"Y#	c #03DD14",
"Z#	c #049B30",
"[#	c #B6B6B6",
"]#	c #B1B1B1",
"^#	c #181F2D",
"_#	c #085BA2",
"`#	c #06A641",
"a#	c #01E907",
"b#	c #2568E4",
"c#	c #2C6DFA",
"d#	c #2E6EFA",
"e#	c #286AFA",
"f#	c #2366F9",
"g#	c #1C60F0",
"h#	c #03C91C",
"i#	c #02D11C",
"j#	c #152728",
"k#	c #C6C6C6",
"l#	c #9E9E9E",
"m#	c #101D3A",
"n#	c #0D50E3",
"o#	c #0D69A5",
"p#	c #03D518",
"q#	c #0A9752",
"r#	c #2264F6",
"s#	c #2265F9",
"t#	c #1A60F8",
"u#	c #0F67AF",
"v#	c #02C817",
"w#	c #0B4328",
"x#	c #434343",
"y#	c #D5D5D5",
"z#	c #9D9E9F",
"{#	c #182031",
"|#	c #0B3DAC",
"}#	c #0F5AD7",
"~#	c #089B58",
" $	c #088254",
"!$	c #195FF7",
"#$	c #195FF8",
"$$	c #175EF8",
"%$	c #155CF8",
"&$	c #1159F7",
"'$	c #464646",
"($	c #E4E4E4",
")$	c #D8D8D8",
"*$	c #4B515D",
"+$	c #15274F",
",$	c #0B348E",
"-$	c #0942B0",
".$	c #0E54E9",
"0$	c #0E55F0",
"1$	c #0A43C2",
"2$	c #282828",
"3$	c #EAEAEA",
"4$	c #F3F3F3",
"5$	c #D0D0D0",
"6$	c #999A9B",
"7$	c #595F6B",
"8$	c #283040",
"9$	c #303030",
":$	c #5B5B5B",
"! # $ $ $ % % % % % & & & ' ' ' ' ' ( ( ( ( ( ) ) ) * * * * + ! ",
", - - . . 0 1 1 2 2 3 4 4 5 6 6 6 6 7 8 8 9 9 : ; ; < = = > = , ",
"? @ @ + A ? B C C C C C C C C C C C C C C C C C C D A . . 0 1 E ",
"! ! ! ! ! F - + + + + + + + + + + + + + + + + + + - G + A A H ? ",
"! ! ! ! ! F I J J J J J J J J J J J J J J J J J J I F ! ! ! ! ! ",
"! ! ! ! ! F J K K K K K K K K K K K K K K K K K K J F ! ! ! ! ! ",
"! ! ! ! ! F J K K K K K K K K K K K K K K K K K K J F ! ! ! ! ! ",
"! ! ! ! ! F J 7 L K K K M N K K O P K K Q R S K K J F ! ! ! ! ! ",
"! ! ! ! ! F J 4 T K K K U V K K O W K K X Y $ K K J F ! ! ! ! ! ",
"! ! ! ! ! F J 4 T K K K U V K K O W K K H Z + [ K J F ! ! ! ! ! ",
"! ! ! ! ! F J 4 T K K K U V K K O W K ] % K ^ Y K J F ! ! ! ! ! ",
"! ! ! ! ! F J 4 T K K K _ : ` a b c d e f % % g h J F ! ! ! ! ! ",
"! ! ! ! ! F J 4 i h h j k l m n o p q r s K K 8 X J F ! ! ! ! ! ",
"! ! ! ! ! F J t + # u v w x y z z y { | } ~ d  !Y J F ! ! ! ! ! ",
"! ! ! ! ! F J K !!#!$!%!&!'!(!)!)!(!*!+!%!,!-!!!K J F ! ! ! ! ! ",
"! ! ! ! ! R .!0!1!2!%!%!%!3!4!5!5!6!7!8!%!%!9!:!0!.!R ! ! ! ! ! ",
"! ! ! ! ! ;!F <!=!%!%!%!>!?!@!A!A!B!C!%!%!%!D!E!<!F ;!! ! ! ! ! ",
"! ! ! ! ! F!G!H!I!J!%!K!L!M!N!O!O!N!P!Q!%!%!%!R!S!+ , ! ! ! ! ! ",
"! ! ! @ 0 : 2 T!U!V!%!W!X!O!Y!Z!Z!Y!O![!%!%!%!%!]!2 ; 5 $ F!! ! ",
"! + = ^!^!^!_!`!a!b!V!c!d!Y!e!f!f!e!Y!g!h!i!>!%!j!_!^!^!^!k!- l!",
"H M M M M M m!n!o!p!q!r!s!t!u!v!v!u!t!w!x!y!z!%!{!m!M M M M M $ ",
"' |!|!|!|!|!}!~!o! #!###$#%#&#'#'#&#%#(#)#*#%!%!+#}!|!|!|!|!|!' ",
"* 0!0!0!0!0!,#-#.#0#%!%!1#2#3#4#4#5#6#7#%!%!%!%!8#,#0!0!0!0!0!* ",
". 9#9#9#9#9#:#;#<#%!%!%!%!=#>#?#?#@#A#B#%!%!%!%!C#:#9#9#9#9#9#. ",
"3 D#D#D#D#D#E#F#G#%!%!%!%!H#I#J#J#O!K#L#M#%!%!=#N#E#D#D#D#D#D#3 ",
"6 O#O#O#O#O#O#P#Q#R#%!%!%!S#T#U#U#T#V#W#X#Y#%!Z#P#O#O#O#O#O#O#6 ",
"9 [#[#[#[#[#[#]#^#_#`#q!a#b#c#d#d#c#e#f#g#h#i#j#]#[#[#[#[#[#[#9 ",
"= k#k#k#k#k#k#k#l#m#n#o#p#q#r#f#f#s#(!t#u#v#w#l#k#k#k#k#k#k#k#= ",
"x#y#y#y#y#y#y#y#y#z#{#|#}#~# $!$#$$$%$&$|#{#z#y#y#y#y#y#y#y#y#x#",
"'$($($($($($($($($($)$*$+$,$-$.$0$1$,$+$*$)$($($($($($($($($($'$",
"2$3$4$4$4$4$4$4$4$4$4$4$5$6$7$8$8$7$6$5$4$4$4$4$4$4$4$4$4$4$3$2$",
"! 9$:$:$:$:$:$:$:$:$:$:$:$:$:$:$:$:$:$:$:$:$:$:$:$:$:$:$:$U * ! "};