/* XPM */ 
static const char * bt_help_xpm[] = {
"32 32 368 2",
"  	c None",
"! 	c #1A1A1A",
"# 	c #232323",
"$ 	c #292929",
"% 	c #2A2A2A",
"& 	c #2B2B2B",
"' 	c #2C2C2C",
"( 	c #2D2D2D",
") 	c #2E2E2E",
"* 	c #2F2F2F",
"+ 	c #252525",
", 	c #1E1E1E",
"- 	c #313131",
". 	c #323232",
"0 	c #333333",
"1 	c #343434",
"2 	c #353535",
"3 	c #363636",
"4 	c #373737",
"5 	c #383838",
"6 	c #393939",
"7 	c #3A3A3A",
"8 	c #3B3B3B",
"9 	c #3C3C3C",
": 	c #3D3D3D",
"; 	c #3E3E3E",
"< 	c #3F3F3F",
"= 	c #404040",
"> 	c #414141",
"? 	c #1D1D1D",
"@ 	c #242424",
"A 	c #262626",
"B 	c #272727",
"C 	c #282828",
"D 	c #262726",
"E 	c #272827",
"F 	c #282928",
"G 	c #292A29",
"H 	c #303030",
"I 	c #212121",
"J 	c #191919",
"K 	c #191A19",
"L 	c #181A18",
"M 	c #181A17",
"N 	c #171A16",
"O 	c #171A15",
"P 	c #161A14",
"Q 	c #181B16",
"R 	c #191C18",
"S 	c #1A1C19",
"T 	c #1C1E1C",
"U 	c #1E1F1E",
"V 	c #202020",
"W 	c #222222",
"X 	c #181918",
"Y 	c #171816",
"Z 	c #141713",
"[ 	c #141911",
"] 	c #121A0E",
"^ 	c #131E0D",
"_ 	c #121F0B",
"` 	c #13220B",
"a 	c #171817",
"b 	c #151714",
"c 	c #131811",
"d 	c #121C0D",
"e 	c #13230A",
"f 	c #152C08",
"g 	c #173406",
"h 	c #193B05",
"i 	c #1A3F04",
"j 	c #121A0F",
"k 	c #13210B",
"l 	c #152E07",
"m 	c #1B3F05",
"n 	c #204F03",
"o 	c #265D02",
"p 	c #2B6702",
"q 	c #2D6B01",
"r 	c #13260A",
"s 	c #183806",
"t 	c #204E03",
"u 	c #2B6602",
"v 	c #347901",
"w 	c #3D8701",
"x 	c #428F00",
"y 	c #449400",
"z 	c #14260A",
"{ 	c #235802",
"| 	c #317401",
"} 	c #3E8A00",
"~ 	c #4A9A00",
" !	c #52A001",
"!!	c #4C850C",
"#!	c #4B7817",
"$!	c #4A7916",
"%!	c #4C870C",
"&!	c #52A201",
"'!	c #131911",
"(!	c #12210B",
")!	c #235702",
"*!	c #449200",
"+!	c #53A400",
",!	c #548F0E",
"-!	c #3C4135",
".!	c #3F403D",
"0!	c #9A9A99",
"1!	c #858A7E",
"2!	c #464F39",
"3!	c #55930C",
"4!	c #56A700",
"5!	c #5FA604",
"6!	c #4D5542",
"7!	c #8B8C88",
"8!	c #5A7B17",
"9!	c #6E9D0C",
":!	c #4C5142",
";!	c white",
"<!	c #EBEBEB",
"=!	c #49503D",
">!	c #61A903",
"?!	c #161816",
"@!	c #12230A",
"A!	c #1A3F05",
"B!	c #2A6602",
"C!	c #52A400",
"D!	c #65B300",
"E!	c #5A8614",
"F!	c #A9AAA7",
"G!	c #DBDBDB",
"H!	c #5A6930",
"I!	c #9ACF00",
"J!	c #566134",
"K!	c #E9E9E9",
"L!	c #9FA09B",
"M!	c #5C8B10",
"N!	c #181818",
"O!	c #161815",
"P!	c #131B0F",
"Q!	c #347801",
"R!	c #499900",
"S!	c #5EAF00",
"T!	c #71BB00",
"U!	c #658F11",
"V!	c #8E9088",
"W!	c #F3F3F3",
"X!	c #4F5637",
"Y!	c #AED900",
"Z!	c #728623",
"[!	c #C5C5C5",
"]!	c #ACADAA",
"^!	c #618418",
"_!	c #151814",
"`!	c #121D0D",
"a!	c #163406",
"b!	c #255B02",
"c!	c #3C8601",
"d!	c #52A300",
"e!	c #68B500",
"f!	c #7BC000",
"g!	c #8BC302",
"h!	c #5E6E2D",
"i!	c #4E5438",
"j!	c #92AB13",
"k!	c #C0E100",
"l!	c #6D782E",
"m!	c #D7D7D7",
"n!	c #676C59",
"o!	c #81B406",
"p!	c #151813",
"q!	c #12200C",
"r!	c #183A05",
"s!	c #2A6502",
"t!	c #418E00",
"u!	c #58A900",
"v!	c #6EB900",
"w!	c #82C400",
"x!	c #96CD00",
"y!	c #A9D600",
"z!	c #BADE00",
"{!	c #C7E500",
"|!	c #CAE201",
"}!	c #4F523C",
"~!	c #FBFBFB",
" #	c #919387",
"!#	c #5D6B2B",
"##	c #141812",
"$#	c #1A3E05",
"%#	c #2C6A01",
"&#	c #5BAC00",
"'#	c #86C500",
"(#	c #9BCF00",
")#	c #AED800",
"*#	c #CFE800",
"+#	c #95A217",
",#	c #989991",
"-#	c #7C7D6E",
".#	c #717E25",
"0#	c #ADD700",
"1#	c #4E5036",
"2#	c #5A5B4E",
"3#	c #8A981C",
"4#	c #193B06",
"5#	c #428F01",
"6#	c #BDD903",
"7#	c #85921A",
"8#	c #1C1F1B",
"9#	c #1F2A1A",
":#	c #1F3D0F",
";#	c #285E05",
"<#	c #8EC900",
"=#	c #9FD100",
">#	c #A9C905",
"?#	c #A9C507",
"@#	c #212C1C",
"A#	c #20231F",
"B#	c #3F413E",
"C#	c #30382C",
"D#	c #253C18",
"E#	c #265409",
"F#	c #367A03",
"G#	c #4A9A01",
"H#	c #83C400",
"I#	c #92CB00",
"J#	c #A5D101",
"K#	c #91B309",
"L#	c #434343",
"M#	c #1C1C1C",
"N#	c #5B5B5B",
"O#	c #585858",
"P#	c #4F514F",
"Q#	c #3E433C",
"R#	c #2C3D24",
"S#	c #264B11",
"T#	c #2E6A06",
"U#	c #3F8B01",
"V#	c #75BD00",
"W#	c #8DC800",
"X#	c #5F722B",
"Y#	c #464A3A",
"Z#	c #5C6B30",
"[#	c #90C303",
"]#	c #6B6B6B",
"^#	c #686868",
"_#	c #616261",
"`#	c #515450",
"a#	c #3C4637",
"b#	c #2C451E",
"c#	c #2A580D",
"d#	c #347704",
"e#	c #459301",
"f#	c #64940F",
"g#	c #82857B",
"h#	c #9D9F9A",
"i#	c #60841A",
"j#	c #7A7A7A",
"k#	c #797979",
"l#	c #747474",
"m#	c #686967",
"n#	c #525850",
"o#	c #3B4A34",
"p#	c #2D4D1B",
"q#	c #2C600B",
"r#	c #377C04",
"s#	c #5FAF00",
"t#	c #558415",
"u#	c #989B94",
"v#	c #B5B6B4",
"w#	c #547621",
"x#	c #898989",
"y#	c #888888",
"z#	c #868686",
"{#	c #7E7F7E",
"|#	c #6D6F6C",
"}#	c #545C51",
"~#	c #3D4F33",
" $	c #2F511B",
"!$	c #2D620C",
"#$	c #357805",
"$$	c #408C02",
"%$	c #4B9B01",
"&$	c #53A102",
"'$	c #435333",
"($	c #565D4E",
")$	c #445036",
"*$	c #549D04",
"+$	c #54A501",
",$	c #999999",
"-$	c #989898",
".$	c #949494",
"0$	c #888988",
"1$	c #747773",
"2$	c #596155",
"3$	c #415438",
"4$	c #345422",
"5$	c #2F5D12",
"6$	c #336E0A",
"7$	c #387D05",
"8$	c #3F8903",
"9$	c #449102",
":$	c #438C05",
";$	c #459501",
"<$	c #A8A8A8",
"=$	c #A7A7A7",
">$	c #A6A6A6",
"?$	c #A0A0A0",
"@$	c #939493",
"A$	c #7E817D",
"B$	c #666E63",
"C$	c #4E5C46",
"D$	c #3D562F",
"E$	c #34581E",
"F$	c #316014",
"G$	c #32690E",
"H$	c #336F0A",
"I$	c #357309",
"J$	c #B6B6B6",
"K$	c #B5B5B5",
"L$	c #B3B3B3",
"M$	c #ADADAD",
"N$	c #A1A2A1",
"O$	c #90928F",
"P$	c #797E77",
"Q$	c #626C5D",
"R$	c #506047",
"S$	c #435A36",
"T$	c #3D5A2C",
"U$	c #385A24",
"V$	c #355A1F",
"W$	c #C6C6C6",
"X$	c #C3C3C3",
"Y$	c #BEBEBE",
"Z$	c #B6B7B6",
"[$	c #A7A8A6",
"]$	c #959894",
"^$	c #82877F",
"_$	c #727A6E",
"`$	c #677261",
"a$	c #5D6A56",
"b$	c #586750",
"c$	c #D5D5D5",
"d$	c #D4D4D4",
"e$	c #D3D3D3",
"f$	c #D0D0D0",
"g$	c #C9C9C9",
"h$	c #C0C1C0",
"i$	c #B4B6B4",
"j$	c #AAACA9",
"k$	c #A0A39F",
"l$	c #989B96",
"m$	c #939791",
"n$	c #464646",
"o$	c #E4E4E4",
"p$	c #E3E3E3",
"q$	c #E1E1E1",
"r$	c #DEDEDE",
"s$	c #D9D9D9",
"t$	c #D0D1D0",
"u$	c #CCCDCC",
"v$	c #C9CAC9",
"w$	c #EAEAEA",
"x$	c #F2F2F2",
"y$	c #F1F1F1",
"z$	c #EFEFEF",
"{$	c #EEEEEE",
"|$	c #EDEDED",
"}$	c #ECECEC",
"~$	c #5A5A5A",
"! # $ $ $ % % % % % & & & ' ' ' ' ' ( ( ( ( ( ) ) ) * * * * + ! ",
", - - . . 0 1 1 2 2 3 4 3 4 5 4 4 5 6 7 8 9 9 : ; ; < = = > = , ",
"? @ @ + A A B B B C B B B D D D E F G & ( ) * H H - - . . 0 1 I ",
"! ! ! ! ! ! ! ! J ! K L M N O P P Q R S T U V W # @ + + A A B ? ",
"! ! ! ! ! ! ! J X Y Z [ ] ^ _ ` ` _ ^ ] [ Z Y X J ! ! ! ! ! ! ! ",
"! ! ! ! ! ! J a b c d e f g h i i h g f e d c b a J ! ! ! ! ! ! ",
"! ! ! ! ! J a Z j k l m n o p q q p o n m l k j Z a J ! ! ! ! ! ",
"! ! ! ! J a Z ] r s t u v w x y y x w v u t s r ] Z a J ! ! ! ! ",
"! ! ! J X b j z h { | } ~  !!!#!$!%!&!~ } | { h z j b X J ! ! ! ",
"! ! ! J Y '!(!s )!v *!+!,!-!& .!0!1!2!3!+!*!v )!s (!'!Y J ! ! ! ",
"! ! J X Z d l t | *!4!5!6!7!8!9!:!;!<!=!>!4!*!| t l d Z X J ! ! ",
"! ! J ?!c @!A!B!} C!D!E!F!G!H!I!J!K!;!L!M!D!C!} B!A!@!c ?!J ! ! ",
"! ! N!O!P!f t Q!R!S!T!U!V!W!X!Y!Z![!;!]!^!T!S!R!Q!t f P!O!N!! ! ",
"! J X _!`!a!b!c!d!e!f!g!h!i!j!k!l!m!;!n!o!f!e!d!c!b!a!`!_!X J ! ",
"! J a p!q!r!s!t!u!v!w!x!y!z!{!|!}!~! #!#x!w!v!u!t!s!r!q!p!a J ! ",
"! J a ##(!$#%#*!&#T!'#(#)#k!*#+#,#-#.#0#(#'#T!&#*!%#$#(!##a J ! ",
"! J a ##(!$#%#*!&#T!'#(#)#k!*#1#2#3#k!)#(#'#T!&#*!%#$#(!##a J ! ",
"! J a p!q!4#s!5#u!v!w!x!y!z!6#& 7#{!z!y!x!w!v!u!5#s!4#q!p!a J ! ",
"! J X 8#9#:#;#c!d!e!f!<#=#Y!>#& ?#z!Y!=#<#f!e!d!c!;#:#@#A#K J ! ",
"! + 9 B#C#D#E#F#G#S!T!H#I#=#J#K#Y!y!=#I#H#T!S!G#F#E#D#C#B#L#H M#",
"B N#O#P#Q#R#S#T#U#C!D!V#H#W#X#Y#Z#[#<#H#V#D!C!U#T#S#R#Q#P#O#N#$ ",
"' ]#^#_#`#a#b#c#d#e#4!D!T!f#g#;!h#i#f!T!D!4!e#d#c#b#a#`#_#^#]#' ",
"* j#k#l#m#n#o#p#q#r#e#+!s#t#u#;!v#w#e!s#+!e#r#q#p#o#n#m#l#k#j#* ",
". x#y#z#{#|#}#~# $!$#$$$%$&$'$($)$*$+$%$$$#$!$ $~#}#|#{#z#y#x#. ",
"3 ,$,$-$.$0$1$2$3$4$5$6$7$8$9$:$;$9$8$7$6$5$4$3$2$1$0$.$-$,$,$3 ",
"6 <$<$=$>$?$@$A$B$C$D$E$F$G$H$I$I$H$G$F$E$D$C$B$A$@$?$>$=$<$<$6 ",
"9 J$J$J$K$L$M$N$O$P$Q$R$S$T$U$V$V$U$T$S$R$Q$P$O$N$M$L$K$J$J$J$9 ",
"= W$W$W$W$[!X$Y$Z$[$]$^$_$`$a$b$b$a$`$_$^$]$[$Z$Y$X$[!W$W$W$W$= ",
"L#c$c$c$c$c$d$e$f$g$h$i$j$k$l$m$m$l$k$j$i$h$g$f$e$d$c$c$c$c$c$L#",
"n$o$o$o$o$o$o$o$p$q$r$s$c$t$u$v$v$u$t$c$s$r$q$p$o$o$o$o$o$o$o$n$",
"C w$W!W!W!W!W!W!W!x$x$y$z${$|$}$}$|${$z$y$x$x$W!W!W!W!W!W!W!w$C ",
"! H N#N#N#N#N#N#N#N#N#N#N#N#N#N#N#N#N#N#N#N#N#N#N#N#N#N#N#~$* ! "};