/* XPM */ 
static const char * bt_load_project_xpm[] = {
"32 32 235 2",
"  	c None",
"! 	c #1A1A1A",
"# 	c #222222",
"$ 	c #292929",
"% 	c #2A2A2A",
"& 	c #2B2B2B",
"' 	c #2C2C2C",
"( 	c #2D2D2D",
") 	c #2E2E2E",
"* 	c #2F2F2F",
"+ 	c #242424",
", 	c #1E1E1E",
"- 	c #313131",
". 	c #323232",
"0 	c #333333",
"1 	c #343434",
"2 	c #353535",
"3 	c #363636",
"4 	c #373737",
"5 	c #383838",
"6 	c #393939",
"7 	c #3A3A3A",
"8 	c #3B3B3B",
"9 	c #3C3C3C",
": 	c #3D3D3D",
"; 	c #3E3E3E",
"< 	c #3F3F3F",
"= 	c #404040",
"> 	c #414141",
"? 	c #1D1D1D",
"@ 	c #252525",
"A 	c #262626",
"B 	c #272727",
"C 	c #282828",
"D 	c #303030",
"E 	c #212121",
"F 	c #1B1B1B",
"G 	c #1C1C1C",
"H 	c #1F1F1F",
"I 	c #202020",
"J 	c #232323",
"K 	c #342E15",
"L 	c #433913",
"M 	c #3D3514",
"N 	c #1B1B1A",
"O 	c #705C0A",
"P 	c #AA8800",
"Q 	c #907405",
"R 	c #1D1C1A",
"S 	c #A78601",
"T 	c #1E1D19",
"U 	c #5D4D0E",
"V 	c #3E3513",
"W 	c #3B3314",
"X 	c #2E2A16",
"Y 	c #A98700",
"Z 	c #9A7C03",
"[ 	c #222019",
"] 	c #604F0D",
"^ 	c #C09B02",
"_ 	c #D8B426",
"` 	c #DEBD39",
"a 	c #DDBC37",
"b 	c #DDBC35",
"c 	c #DDBB33",
"d 	c #DCBA30",
"e 	c #DCB92E",
"f 	c #DBB82B",
"g 	c #DBB829",
"h 	c #DAB726",
"i 	c #DAB624",
"j 	c #DAB522",
"k 	c #D9B41F",
"l 	c #D9B41D",
"m 	c #D8B31B",
"n 	c #D8B219",
"o 	c #D8B116",
"p 	c #D7B114",
"q 	c #D7B011",
"r 	c #D7AF0F",
"s 	c #D6AE0B",
"t 	c #D4AB02",
"u 	c #BC9703",
"v 	c #3F3715",
"w 	c #67550C",
"x 	c #B99400",
"y 	c #DEBD3A",
"z 	c #E6CD6A",
"{ 	c #E5CC65",
"| 	c #E4CA61",
"} 	c #E4C95D",
"~ 	c #E3C758",
" !	c #E2C654",
"!!	c #E1C44F",
"#!	c #E1C34B",
"$!	c #E0C146",
"%!	c #DFC042",
"&!	c #DEBE3D",
"'!	c #DDBB34",
"(!	c #DBB727",
")!	c #DAB623",
"*!	c #D9B41E",
"+!	c #D8B31A",
",!	c #D8B115",
"-!	c #D5AC07",
".!	c #D4AA00",
"0!	c #6D5A0E",
"1!	c #C7A102",
"2!	c #E5CB63",
"3!	c #E4CA5F",
"4!	c #E3C85A",
"5!	c #E3C756",
"6!	c #E2C552",
"7!	c #E1C44D",
"8!	c #E0C249",
"9!	c #DFC144",
":!	c #DFBF40",
";!	c #DEBE3B",
"<!	c #DCBB32",
"=!	c #DAB625",
">!	c #D9B520",
"?!	c #D9B31C",
"@!	c #D8B217",
"A!	c #D7B013",
"B!	c #D6AD0A",
"C!	c #D5AB03",
"D!	c #4C4113",
"E!	c #D6B017",
"F!	c #E1C550",
"G!	c #E0C247",
"H!	c #DEBF3E",
"I!	c #DBB92C",
"J!	c #D6AE0C",
"K!	c #D5AD08",
"L!	c #D0A701",
"M!	c #212019",
"N!	c #A68501",
"O!	c #A58401",
"P!	c #AE8B01",
"Q!	c #E3C85B",
"R!	c #E1C44E",
"S!	c #E0C145",
"T!	c #DEBE3C",
"U!	c #DBB82A",
"V!	c #DAB521",
"W!	c #D8B218",
"X!	c #D5AC06",
"Y!	c #D4AA01",
"Z!	c #A68606",
"[!	c #9F7F02",
"]!	c #9E7E03",
"^!	c #B79202",
"_!	c #DCBA31",
"`!	c #DBB728",
"a!	c #D6AE0D",
"b!	c #D5AB04",
"c!	c #76610D",
"d!	c #987A04",
"e!	c #977904",
"f!	c #C59E04",
"g!	c #453B14",
"h!	c #917405",
"i!	c #927505",
"j!	c #D6AF15",
"k!	c #E1C34C",
"l!	c #DFC043",
"m!	c #CBA301",
"n!	c #1D1C19",
"o!	c #8A6F07",
"p!	c #9C7D05",
"q!	c #DFC041",
"r!	c #DDBD38",
"s!	c #DCBA2F",
"t!	c #9E8007",
"u!	c #846908",
"v!	c #AD8A04",
"w!	c #DFBF3F",
"x!	c #DDBC36",
"y!	c #DCB92D",
"z!	c #D9B31B",
"{!	c #D7B012",
"|!	c #D6AD09",
"}!	c #766316",
"~!	c #6C5A11",
" #	c #7D6409",
"!#	c #C19B05",
"##	c #D7AF10",
"$#	c #675F3E",
"%#	c #484848",
"&#	c #86742B",
"'#	c #7C620A",
"(#	c #D6AF11",
")#	c #D6AF0E",
"*#	c #D5AC05",
"+#	c #CBA406",
",#	c #5D5D5C",
"-#	c #5C5C5C",
".#	c #8D7B32",
"0#	c #8D7108",
"1#	c #B29623",
"2#	c #6B6B6B",
"3#	c #948239",
"4#	c #A58306",
"5#	c #9F8E48",
"6#	c #7A7A7A",
"7#	c #9B8940",
"8#	c #C09A06",
"9#	c #948E74",
":#	c #898989",
";#	c #A69342",
"<#	c #CFA80A",
"=#	c #999999",
">#	c #B79F3D",
"?#	c #D4AB03",
"@#	c #C3A42A",
"A#	c #A8A8A8",
"B#	c #BBAF7E",
"C#	c #D3A900",
"D#	c #CFA703",
"E#	c #B8B39E",
"F#	c #B6B6B6",
"G#	c #C6C6C6",
"H#	c #C8C2AC",
"I#	c #C6B674",
"J#	c #C7B774",
"K#	c #C6B87F",
"L#	c #C6C6C3",
"M#	c #434343",
"N#	c #D5D5D5",
"O#	c #464646",
"P#	c #E4E4E4",
"Q#	c #EAEAEA",
"R#	c #F3F3F3",
"S#	c #5B5B5B",
"T#	c #5A5A5A",
"! # $ $ $ % % % % % & & & ' ' ' ' ' ( ( ( ( ( ) ) ) * * * * + ! ",
", - - . . 0 1 1 2 2 3 4 4 5 6 6 6 6 7 8 8 9 9 : ; ; < = = > = , ",
"? + + @ A A B B B C C $ % % & & ' ( ( ) * * D D D - - . . 0 1 E ",
"! ! ! ! ! ! ! ! ! F G G ? , , , , H I I E E # J J + @ @ A A B ? ",
"! ! ! K L L L L M N ! ! ! ! ! ! ! ! ! ! ! ! ! ! ! ! ! ! ! ! ! ! ",
"! ! O P P P P P P Q N ! ! ! ! ! ! ! ! ! ! ! ! ! ! ! ! ! ! ! ! ! ",
"! R S P P P P P P P M ! ! ! ! ! ! ! ! ! ! ! ! ! ! ! ! ! ! ! ! ! ",
"! T P P P P P P P P U V V V V V V V V V V V V V W R ! ! ! ! ! ! ",
"! X Y P P P P P P P P P P P P P P P P P P P P P P Z [ ! ! ! ! ! ",
"! ] P P P P ^ _ ` a b c d e f g h i j k l m n o p q r s t u v ! ",
"! w P P P x y z { | } ~  !!!#!$!%!&!` '!d f (!)!*!+!,!q -!.!0!! ",
"! w P P P 1!2!2!3!4!5!6!7!8!9!:!;!a <!e g =!>!?!@!A!r B!C!.!D!! ",
"! w P P P E!| } ~  !F!#!G!%!H!` b d I!(!)!*!+!,!q J!K!C!.!L!M!! ",
"! w N!O!P!e Q!5!6!R!8!S!:!T!a c e U!=!V!?!W!A!r B!X!Y!.!.!Z!! ! ",
"! w [!]!^!%! !F!#!G!%!H!` b _!I!`!)!k +!o q a!K!b!.!.!.!.!c!! ! ",
"! w d!e!f!!!R!8!S!:!T!a c e U!=!V!?!W!p r s X!t .!.!.!.!.!g!! ! ",
"! w h!i!j!k!G!l!H!y b _!I!`!)!k +!o q a!K!b!.!.!.!.!.!.!m!n!! ! ",
"! w o!p!h S!q!T!r!c s!U!h V!l W!p r s X!t .!.!.!.!.!.!.!t!! ! ! ",
"! w u!v!'!w!y x!_!y!`!i k z!o {!a!|!b!.!.!.!.!.!.!.!.!.!}!F ! ! ",
"! ~! #!#;!r!c s!U!h j l n p ##s -!t .!.!.!.!.!.!.!.!.!.!$#%#- G ",
"B &#'#(#x!_!y!`!i k z!o {!)#|!*#.!.!.!.!.!.!.!.!.!.!.!+#,#-#-#$ ",
"' .#0#l s!f h j l n p ##s -!t .!.!.!.!.!.!.!.!.!.!.!.!1#2#2#2#' ",
"* 3#4#=!g i >!z!@!{!)#|!*#.!.!.!.!.!.!.!.!.!.!.!.!.!.!5#6#6#6#* ",
". 7#8#(!j *!n ,!##J!-!C!.!.!.!.!.!.!.!.!.!.!.!.!.!.!.!9#:#:#:#. ",
"3 ;#|!>!?!@!A!)#B!*#Y!.!.!.!.!.!.!.!.!.!.!.!.!.!.!.!<#=#=#=#=#3 ",
"6 >#?#{!{!)#s X!?#.!.!.!.!.!.!.!.!.!.!.!.!.!.!.!.!.!@#A#A#A#A#6 ",
"9 B#C#.!.!.!.!.!.!.!.!.!.!.!.!.!.!.!.!.!.!.!.!.!.!D#E#F#F#F#F#9 ",
"= G#H#I#J#J#J#J#J#J#J#J#J#J#J#J#J#J#J#J#J#J#J#J#K#L#G#G#G#G#G#= ",
"M#N#N#N#N#N#N#N#N#N#N#N#N#N#N#N#N#N#N#N#N#N#N#N#N#N#N#N#N#N#N#M#",
"O#P#P#P#P#P#P#P#P#P#P#P#P#P#P#P#P#P#P#P#P#P#P#P#P#P#P#P#P#P#P#O#",
"B Q#R#R#R#R#R#R#R#R#R#R#R#R#R#R#R#R#R#R#R#R#R#R#R#R#R#R#R#R#Q#B ",
"! * S#S#S#S#S#S#S#S#S#S#S#S#S#S#S#S#S#S#S#S#S#S#S#S#S#S#S#T#) ! "};