/* XPM */ 
static const char * bt_new_project_xpm[] = {
"32 32 251 2",
"  	c None",
"! 	c #1A1A1A",
"# 	c #232323",
"$ 	c #292929",
"% 	c #2A2A2A",
"& 	c #2B2B2B",
"' 	c #2C2C2C",
"( 	c #2D2D2D",
") 	c #2E2E2E",
"* 	c #2F2F2F",
"+ 	c #252525",
", 	c #1E1E1E",
"- 	c #313131",
". 	c #323232",
"0 	c #333333",
"1 	c #343434",
"2 	c #353535",
"3 	c #363636",
"4 	c #373737",
"5 	c #383838",
"6 	c #393939",
"7 	c #3A3A3A",
"8 	c #3B3B3B",
"9 	c #3C3C3C",
": 	c #3D3D3D",
"; 	c #3E3E3E",
"< 	c #3F3F3F",
"= 	c #404040",
"> 	c #414141",
"? 	c #1D1D1D",
"@ 	c #242424",
"A 	c #262626",
"B 	c #272727",
"C 	c #282828",
"D 	c #303030",
"E 	c #212121",
"F 	c #1B1B1B",
"G 	c #1C1C1C",
"H 	c #1F1F1F",
"I 	c #202020",
"J 	c #262616",
"K 	c #1F1F1C",
"L 	c #222222",
"M 	c #535314",
"N 	c #414114",
"O 	c #191919",
"P 	c #181818",
"Q 	c #27270B",
"R 	c #222213",
"S 	c #1A1A16",
"T 	c #AEAE39",
"U 	c #86862D",
"V 	c #292913",
"W 	c #25250D",
"X 	c #15150D",
"Y 	c #252511",
"Z 	c #2B2B13",
"[ 	c #414110",
"] 	c #DADA3A",
"^ 	c #717129",
"_ 	c #4B4B20",
"` 	c #FFFF77",
"a 	c #F3F371",
"b 	c #40401F",
"c 	c #7B7B2D",
"d 	c #D1D134",
"e 	c #262613",
"f 	c #1B1B0F",
"g 	c #C2C255",
"h 	c #DEDE61",
"i 	c #C9C958",
"j 	c #B2B242",
"k 	c #FFFF7A",
"l 	c #FFFF90",
"m 	c #FFFF9D",
"n 	c #FFFF9C",
"o 	c #FFFF8D",
"p 	c #FFFF75",
"q 	c #74742B",
"r 	c #1B1B10",
"s 	c #C4C45C",
"t 	c #E0E069",
"u 	c #CCCC60",
"v 	c #7F7F39",
"w 	c #FFFF92",
"x 	c #FFFFAF",
"y 	c #FFFFC2",
"z 	c #FFFFC0",
"{ 	c #FFFFAB",
"| 	c #3C3C1C",
"} 	c #1C1C11",
"~ 	c #C5C562",
" !	c #E1E170",
"!!	c #B7B757",
"#!	c #8D8D33",
"$!	c #ABAB3D",
"%!	c #FBFB7A",
"&!	c #FFFFA1",
"'!	c #FFFFC5",
"(!	c #FFFFE4",
")!	c #FFFFE0",
"*!	c #FFFFBF",
"+!	c #FFFF9B",
",!	c #F4F471",
"-!	c #83832C",
".!	c #3F3F13",
"0!	c #1C1C12",
"1!	c #C7C769",
"2!	c #E3E378",
"3!	c #E2E278",
"4!	c #9A9A48",
"5!	c #8C8C2F",
"6!	c #C5C545",
"7!	c #FFFF7D",
"8!	c #FFFFA2",
"9!	c #FFFFC7",
":!	c #FFFFE9",
";!	c #FFFFC1",
"<!	c #FEFE76",
"=!	c #A7A736",
">!	c #4E4E14",
"?!	c #1F1F12",
"@!	c #C8C86F",
"A!	c #E5E57F",
"B!	c #B8B864",
"C!	c #868641",
"D!	c #FFFF95",
"E!	c #FFFFB3",
"F!	c #FFFFAE",
"G!	c #FFFF8F",
"H!	c #43431D",
"I!	c #191916",
"J!	c #1C1C13",
"K!	c #C9C976",
"L!	c #E6E687",
"M!	c #D8D87F",
"N!	c #A7A745",
"O!	c #FFFF7E",
"P!	c #FFFF79",
"Q!	c #6B6B28",
"R!	c #1D1D14",
"S!	c #CBCB7C",
"T!	c #E8E88E",
"U!	c #97974D",
"V!	c #EEEE43",
"W!	c #AAAA47",
"X!	c #878743",
"Y!	c #F8F879",
"Z!	c #7F7F3F",
"[!	c #B7B747",
"]!	c #D3D338",
"^!	c #1F1F13",
"_!	c #CCCC83",
"`!	c #E9E996",
"a!	c #68682F",
"b!	c #989850",
"c!	c #D9D98C",
"d!	c #BBBB75",
"e!	c #C6C646",
"f!	c #A9A941",
"g!	c #D7D78A",
"h!	c #CFCF84",
"i!	c #404012",
"j!	c #26260B",
"k!	c #1D1D15",
"l!	c #CECE8A",
"m!	c #EBEB9E",
"n!	c #8E8E36",
"o!	c #929244",
"p!	c #26261A",
"q!	c #1D1D16",
"r!	c #CECE90",
"s!	c #ECECA5",
"t!	c #9F9F5F",
"u!	c #C0C081",
"v!	c #27271C",
"w!	c #1D1D17",
"x!	c #D0D097",
"y!	c #EEEEAD",
"z!	c #EDEDAC",
"{!	c #29291F",
"|!	c #23231D",
"}!	c #D2D29D",
"~!	c #F0F0B4",
" #	c #2B2B22",
"!#	c #4D4D4D",
"##	c #2A2A25",
"$#	c #D3D3A4",
"%#	c #F1F1BC",
"&#	c #2C2C24",
"'#	c #4B4B4B",
"(#	c #484848",
")#	c #5C5C5C",
"*#	c #2E2E29",
"+#	c #D5D5AB",
",#	c #F3F3C3",
"-#	c #2E2E26",
".#	c #595959",
"0#	c #6B6B6B",
"1#	c #32322D",
"2#	c #D5D5B2",
"3#	c #F4F4CB",
"4#	c #303029",
"5#	c #686868",
"6#	c #7A7A7A",
"7#	c #363632",
"8#	c #D7D7B8",
"9#	c #F6F6D2",
":#	c #31312C",
";#	c #767676",
"<#	c #898989",
"=#	c #393936",
">#	c #D8D8BF",
"?#	c #F7F7DA",
"@#	c #32322E",
"A#	c #858585",
"B#	c #999999",
"C#	c #3D3D3B",
"D#	c #DADAC6",
"E#	c #F9F9E2",
"F#	c #353531",
"G#	c #949494",
"H#	c #A8A8A8",
"I#	c #414140",
"J#	c #DBDBCC",
"K#	c #FAFAE9",
"L#	c #363633",
"M#	c #A3A3A3",
"N#	c #B6B6B6",
"O#	c #444443",
"P#	c #DCDCD3",
"Q#	c #FCFCF1",
"R#	c #373735",
"S#	c #B0B0B0",
"T#	c #C6C6C6",
"U#	c #494948",
"V#	c #C9C9C4",
"W#	c #E6E6E1",
"X#	c #343433",
"Y#	c #C0C0C0",
"Z#	c #434343",
"[#	c #D5D5D5",
"]#	c #777777",
"^#	c #464646",
"_#	c #444444",
"`#	c #D1D1D1",
"a#	c #E4E4E4",
"b#	c #EAEAEA",
"c#	c #F3F3F3",
"d#	c #5B5B5B",
"e#	c #5A5A5A",
"! # $ $ $ % % % % % & & & ' ' ' ' ' ( ( ( ( ( ) ) ) * * * * + ! ",
", - - . . 0 1 1 2 2 3 4 4 5 6 6 6 6 7 8 8 9 9 : ; ; < = = > = , ",
"? @ @ + A A B B B C C $ % % & & ' ( ( ) * * D D D - - . . 0 1 E ",
"! ! ! ! ! ! ! ! ! F G G ? , , , , H I I J K L # # @ + + A A B ? ",
"! ! ! ! ! ! ! ! ! ! ! ! ! ! ! ! ! ! ! ! M N ! ! ! ! ! ! ! ! ! ! ",
"! ! ! ! O P P P P P P P P P P P Q R P S T U O O V W ! ! ! ! ! ! ",
"! ! ! ! X Y Z Z Z Z Z Z Z Z Z Z [ ] ^ _ ` a b c d e ! ! ! ! ! ! ",
"! ! ! ! f g h h h h h h h h h h i j k l m n o p q ! ! ! ! ! ! ! ",
"! ! ! ! r s t t t t t t t t t t u v w x y z { o | O ! ! ! ! ! ! ",
"! ! ! ! } ~  ! ! ! ! ! ! ! !!!#!$!%!&!'!(!)!*!+!,!-!.!S ! ! ! ! ",
"! ! ! ! 0!1!2!2!2!2!2!2!2!3!4!5!6!7!8!9!:!(!;!n <!=!>!?!! ! ! ! ",
"! ! ! ! 0!@!A!A!A!A!A!A!A!A!A!A!B!C!D!E!9!'!F!G!H!I!! ! ! ! ! ! ",
"! ! ! ! J!K!L!L!L!L!L!L!L!L!L!L!M!N!O!D!8!&!w P!Q!O ! ! ! ! ! ! ",
"! ! ! ! R!S!T!T!T!T!T!T!T!T!T!T!U!V!W!X!7!Y!Z![!]!^!! ! ! ! ! ! ",
"! ! ! ! R!_!`!`!`!`!`!`!`!`!`!`!a!b!c!d!e!f!g!h!i!j!! ! ! ! ! ! ",
"! ! ! ! k!l!m!m!m!m!m!m!m!m!m!m!m!m!m!m!n!o!m!m!p!O ! ! ! ! ! ! ",
"! ! ! ! q!r!s!s!s!s!s!s!s!s!s!s!s!s!s!s!t!u!s!s!v!O ! ! ! ! ! ! ",
"! ! ! ! w!x!y!y!y!y!y!y!y!y!y!y!y!y!y!y!z!y!y!y!{!@ , ! ! ! ! ! ",
"! ! ! @ |!}!~!~!~!~!~!~!~!~!~!~!~!~!~!~!~!~!~!~! #9 ; 5 $ F ! ! ",
"! + = !###$#%#%#%#%#%#%#%#%#%#%#%#%#%#%#%#%#%#%#&#'#!#!#!#(#- G ",
"B )#)#)#*#+#,#,#,#,#,#,#,#,#,#,#,#,#,#,#,#,#,#,#-#.#)#)#)#)#)#$ ",
"' 0#0#0#1#2#3#3#3#3#3#3#3#3#3#3#3#3#3#3#3#3#3#3#4#5#0#0#0#0#0#' ",
"* 6#6#6#7#8#9#9#9#9#9#9#9#9#9#9#9#9#9#9#9#9#9#9#:#;#6#6#6#6#6#* ",
". <#<#<#=#>#?#?#?#?#?#?#?#?#?#?#?#?#?#?#?#?#?#?#@#A#<#<#<#<#<#. ",
"3 B#B#B#C#D#E#E#E#E#E#E#E#E#E#E#E#E#E#E#E#E#E#E#F#G#B#B#B#B#B#3 ",
"6 H#H#H#I#J#K#K#K#K#K#K#K#K#K#K#K#K#K#K#K#K#K#K#L#M#H#H#H#H#H#6 ",
"9 N#N#N#O#P#Q#Q#Q#Q#Q#Q#Q#Q#Q#Q#Q#Q#Q#Q#Q#Q#Q#Q#R#S#N#N#N#N#N#9 ",
"= T#T#T#U#V#W#W#W#W#W#W#W#W#W#W#W#W#W#W#W#W#W#W#X#Y#T#T#T#T#T#= ",
"Z#[#[#[#]#^#^#^#^#^#^#^#^#^#^#^#^#^#^#^#^#^#^#^#_#`#[#[#[#[#[#Z#",
"^#a#a#a#a#a#a#a#a#a#a#a#a#a#a#a#a#a#a#a#a#a#a#a#a#a#a#a#a#a#a#^#",
"C b#c#c#c#c#c#c#c#c#c#c#c#c#c#c#c#c#c#c#c#c#c#c#c#c#c#c#c#c#b#C ",
"! D d#d#d#d#d#d#d#d#d#d#d#d#d#d#d#d#d#d#d#d#d#d#d#d#d#d#d#e#* ! "};