/* XPM */ 
static const char * bt_play_game_xpm[] = {
"32 32 161 2",
"  	c None",
"! 	c #1A1A1A",
"# 	c #222222",
"$ 	c #292929",
"% 	c #2A2A2A",
"& 	c #2B2B2B",
"' 	c #2C2C2C",
"( 	c #2D2D2D",
") 	c #2E2E2E",
"* 	c #2F2F2F",
"+ 	c #242424",
", 	c #1E1E1E",
"- 	c #313131",
". 	c #323232",
"0 	c #333333",
"1 	c #343434",
"2 	c #353535",
"3 	c #363636",
"4 	c #373737",
"5 	c #383838",
"6 	c #393939",
"7 	c #3A3A3A",
"8 	c #3B3B3B",
"9 	c #3C3C3C",
": 	c #3D3D3D",
"; 	c #3E3E3E",
"< 	c #3F3F3F",
"= 	c #404040",
"> 	c #414141",
"? 	c #1D1D1D",
"@ 	c #252525",
"A 	c #262626",
"B 	c #272727",
"C 	c #282828",
"D 	c #303030",
"E 	c #212121",
"F 	c #070707",
"G 	c #151515",
"H 	c #1B1B1B",
"I 	c #1C1C1C",
"J 	c #1F1F1F",
"K 	c #202020",
"L 	c #232323",
"M 	c #000200",
"N 	c #000100",
"O 	c #090C09",
"P 	c #181818",
"Q 	c #106C03",
"R 	c #082B02",
"S 	c #020401",
"T 	c #0E0F0E",
"U 	c #191919",
"V 	c #148403",
"W 	c #1BA206",
"X 	c #157606",
"Y 	c #051502",
"Z 	c #040903",
"[ 	c #121212",
"] 	c #1EA708",
"^ 	c #1FA80B",
"_ 	c #136007",
"` 	c #020802",
"a 	c #080C08",
"b 	c #161616",
"c 	c #20AB0B",
"d 	c #23B00D",
"e 	c #23A50F",
"f 	c #0F4607",
"g 	c #010200",
"h 	c #0B0E0B",
"i 	c #26B510",
"j 	c #28BA12",
"k 	c #239A10",
"l 	c #0B2A06",
"m 	c #020602",
"n 	c #0F0F0F",
"o 	c #2BBF14",
"p 	c #2EC317",
"q 	c #208410",
"r 	c #051203",
"s 	c #060B05",
"t 	c #141414",
"u 	c #31C819",
"v 	c #31C61B",
"w 	c #1A680F",
"x 	c #010401",
"y 	c #090D09",
"z 	c #171717",
"{ 	c #33CD1C",
"| 	c #36D21E",
"} 	c #32BD1D",
"~ 	c #14460C",
" !	c #020402",
"!!	c #0D0E0D",
"#!	c #39D621",
"$!	c #3CDB23",
"%!	c #2FAA1C",
"&!	c #0B2407",
"'!	c #111111",
"(!	c #3EE025",
")!	c #40E328",
"*!	c #298B19",
"+!	c #050E03",
",!	c #070D06",
"-!	c #41E528",
".!	c #44EA2A",
"0!	c #42DF2A",
"1!	c #1F6714",
"2!	c #010301",
"3!	c #0C0F0B",
"4!	c #0B110A",
"5!	c #0C2508",
"6!	c #070C06",
"7!	c #4D4D4D",
"8!	c #15470D",
"9!	c #030503",
":!	c #262726",
";!	c #4A4A4A",
"<!	c #484848",
"=!	c #5C5C5C",
">!	c #020502",
"?!	c #1E221E",
"@!	c #515151",
"A!	c #6B6B6B",
"B!	c #071405",
"C!	c #121711",
"D!	c #7A7A7A",
"E!	c #0E2D09",
"F!	c #494949",
"G!	c #797979",
"H!	c #898989",
"I!	c #114809",
"J!	c #030402",
"K!	c #3A3D3A",
"L!	c #808080",
"M!	c #999999",
"N!	c #146108",
"O!	c #040A04",
"P!	c #272B27",
"Q!	c #A8A8A8",
"R!	c #091906",
"S!	c #131812",
"T!	c #757575",
"U!	c #B6B6B6",
"V!	c #0C2F06",
"W!	c #070906",
"X!	c #616261",
"Y!	c #B2B2B2",
"Z!	c #C6C6C6",
"[!	c #010201",
"]!	c #474A47",
"^!	c #B3B3B3",
"_!	c #434343",
"`!	c #D5D5D5",
"a!	c #A9A9A9",
"b!	c #464646",
"c!	c #E4E4E4",
"d!	c #EAEAEA",
"e!	c #F3F3F3",
"f!	c #5B5B5B",
"g!	c #5A5A5A",
"! # $ $ $ % % % % % & & & ' ' ' ' ' ( ( ( ( ( ) ) ) * * * * + ! ",
", - - . . 0 1 1 2 2 3 4 4 5 6 6 6 6 7 8 8 9 9 : ; ; < = = > = , ",
"? + + @ A A B B B C C $ % % & & ' ( ( ) * * D D D - - . . 0 1 E ",
"! ! ! ! ! F G ! ! H I I ? , , , , J K K E E # L L + @ @ A A B ? ",
"! ! ! ! ! M N O P ! ! ! ! ! ! ! ! ! ! ! ! ! ! ! ! ! ! ! ! ! ! ! ",
"! ! ! ! ! M Q R S T U ! ! ! ! ! ! ! ! ! ! ! ! ! ! ! ! ! ! ! ! ! ",
"! ! ! ! ! M V W X Y Z [ ! ! ! ! ! ! ! ! ! ! ! ! ! ! ! ! ! ! ! ! ",
"! ! ! ! ! M V W ] ^ _ ` a b ! ! ! ! ! ! ! ! ! ! ! ! ! ! ! ! ! ! ",
"! ! ! ! ! M V W ] c d e f g h P ! ! ! ! ! ! ! ! ! ! ! ! ! ! ! ! ",
"! ! ! ! ! M V W ] c d i j k l m n ! ! ! ! ! ! ! ! ! ! ! ! ! ! ! ",
"! ! ! ! ! M V W ] c d i j o p q r s t ! ! ! ! ! ! ! ! ! ! ! ! ! ",
"! ! ! ! ! M V W ] c d i j o p u v w x y z ! ! ! ! ! ! ! ! ! ! ! ",
"! ! ! ! ! M V W ] c d i j o p u { | } ~  !!!U ! ! ! ! ! ! ! ! ! ",
"! ! ! ! ! M V W ] c d i j o p u { | #!$!%!&!Z '!! ! ! ! ! ! ! ! ",
"! ! ! ! ! M V W ] c d i j o p u { | #!$!(!)!*!+!,!G ! ! ! ! ! ! ",
"! ! ! ! ! M V W ] c d i j o p u { | #!$!(!-!.!0!1!2!3!P ! ! ! ! ",
"! ! ! ! ! M V W ] c d i j o p u { | #!$!(!-!.!0!1!2!3!P ! ! ! ! ",
"! ! ! ! ! M V W ] c d i j o p u { | #!$!(!)!*!+!4!, , ! ! ! ! ! ",
"! ! ! + 0 2!V W ] c d i j o p u { | #!$!%!5!6!$ ; ; ; 5 $ H ! ! ",
"! @ = 7!7!2!V W ] c d i j o p u { | } 8!9!:!;!7!7!7!7!7!7!<!- I ",
"B =!=!=!=!2!V W ] c d i j o p u v w >!?!@!=!=!=!=!=!=!=!=!=!=!$ ",
"' A!A!A!A! !V W ] c d i j o p q B!C!@!A!A!A!A!A!A!A!A!A!A!A!A!' ",
"* D!D!D!D! !V W ] c d i j k E!a F!G!D!D!D!D!D!D!D!D!D!D!D!D!D!* ",
". H!H!H!H! !V W ] c d e I!J!K!L!H!H!H!H!H!H!H!H!H!H!H!H!H!H!H!. ",
"3 M!M!M!M! !V W ] ^ N!O!P!L!M!M!M!M!M!M!M!M!M!M!M!M!M!M!M!M!M!3 ",
"6 Q!Q!Q!Q!9!V W X R!S!T!Q!Q!Q!Q!Q!Q!Q!Q!Q!Q!Q!Q!Q!Q!Q!Q!Q!Q!Q!6 ",
"9 U!U!U!U!9!Q V!W!X!Y!U!U!U!U!U!U!U!U!U!U!U!U!U!U!U!U!U!U!U!U!9 ",
"= Z!Z!Z!Z!9![!]!^!Z!Z!Z!Z!Z!Z!Z!Z!Z!Z!Z!Z!Z!Z!Z!Z!Z!Z!Z!Z!Z!Z!= ",
"_!`!`!`!`!2 a!`!`!`!`!`!`!`!`!`!`!`!`!`!`!`!`!`!`!`!`!`!`!`!`!_!",
"b!c!c!c!c!c!c!c!c!c!c!c!c!c!c!c!c!c!c!c!c!c!c!c!c!c!c!c!c!c!c!b!",
"B d!e!e!e!e!e!e!e!e!e!e!e!e!e!e!e!e!e!e!e!e!e!e!e!e!e!e!e!e!d!B ",
"! * f!f!f!f!f!f!f!f!f!f!f!f!f!f!f!f!f!f!f!f!f!f!f!f!f!f!f!g!) ! "};