/* XPM */ 
static const char * bt_player_edit_script_xpm[] = {
"32 32 257 2",
"  	c None",
"! 	c #1A1A1A",
"# 	c #232323",
"$ 	c #282828",
"% 	c #262626",
"& 	c #272727",
"' 	c #292929",
"( 	c #2A2A2A",
") 	c #2B2B2B",
"* 	c #2C2C2C",
"+ 	c #2F2F2F",
", 	c #252525",
"- 	c #1E1E1E",
". 	c #181818",
"0 	c #020202",
"1 	c black",
"2 	c #131313",
"3 	c #3D3D3D",
"4 	c #404040",
"5 	c #414141",
"6 	c #191919",
"7 	c #4B4B4B",
"8 	c #545454",
"9 	c #4F4F4F",
": 	c #111111",
"; 	c #1F1F1F",
"< 	c #323232",
"= 	c #333333",
"> 	c #343434",
"? 	c #212121",
"@ 	c #090909",
"A 	c #434343",
"B 	c #393939",
"C 	c #2E2E2E",
"D 	c #141414",
"E 	c #1D1D1D",
"F 	c #CECECE",
"G 	c #B7B7B7",
"H 	c #C1C1C1",
"I 	c #CACACA",
"J 	c #AEAEAE",
"K 	c #B9B9B9",
"L 	c #BFBFBF",
"M 	c #C0C0C0",
"N 	c #B4B4B4",
"O 	c #0E0E0E",
"P 	c #777777",
"Q 	c #B3B3B3",
"R 	c #454545",
"S 	c #6F6F6F",
"T 	c #0B0B0B",
"U 	c #707070",
"V 	c #767676",
"W 	c #484848",
"X 	c #9D9D9D",
"Y 	c #CDCDCD",
"Z 	c #929292",
"[ 	c #1B1B1B",
"] 	c #969696",
"^ 	c #010101",
"_ 	c #424242",
"` 	c #717171",
"a 	c #A6A6A6",
"b 	c #0A0A0A",
"c 	c #A5A5A5",
"d 	c #A7A7A7",
"e 	c #4E4E4E",
"f 	c #030303",
"g 	c #BDBDBD",
"h 	c #878787",
"i 	c #575757",
"j 	c #222222",
"k 	c #040404",
"l 	c #B8B8B8",
"m 	c #818181",
"n 	c #A9A9A9",
"o 	c #C8C8C8",
"p 	c #0F0F0F",
"q 	c #A8A8A8",
"r 	c #383838",
"s 	c #676767",
"t 	c #797979",
"u 	c #A2A2A2",
"v 	c #353535",
"w 	c #646464",
"x 	c #888888",
"y 	c #242424",
"z 	c #C3C3C3",
"{ 	c #8A8A8A",
"| 	c #585858",
"} 	c #AAAAAA",
"~ 	c #9A9A9A",
" !	c #B2B2B2",
"!!	c #989898",
"#!	c #8C8C8C",
"$!	c #BBBBBB",
"%!	c #787878",
"&!	c #858585",
"'!	c #AFAFAF",
"(!	c #828282",
")!	c #3E3E3E",
"*!	c #4D4D4D",
"+!	c #565656",
",!	c #0D0D0D",
"-!	c #666666",
".!	c #8D8D8D",
"0!	c #4A4A4A",
"1!	c #171717",
"2!	c #303030",
"3!	c #5B5B5B",
"4!	c #6A6A6A",
"5!	c #757575",
"6!	c #3A3A3A",
"7!	c #7E7E7E",
"8!	c #868686",
"9!	c #464646",
":!	c #2C2822",
";!	c #42392B",
"<!	c #4F4433",
"=!	c #453F35",
">!	c #53524F",
"?!	c #C2C2C2",
"@!	c #3B3B3B",
"A!	c #616161",
"B!	c #232222",
"C!	c #161411",
"D!	c #584930",
"E!	c #C8A66C",
"F!	c #F4CD8A",
"G!	c #F4CE8C",
"H!	c #E4C07F",
"I!	c #947C50",
"J!	c #4E4534",
"K!	c #202020",
"L!	c #1C1C1C",
"M!	c #0A0906",
"N!	c #9E804B",
"O!	c #5A5245",
"P!	c #675D4B",
"Q!	c #F4D298",
"R!	c #F9D79D",
"S!	c #756852",
"T!	c #5A544A",
"U!	c #C6A266",
"V!	c #4C412B",
"W!	c #4A3D26",
"X!	c #EFC174",
"Y!	c #F3CB85",
"Z!	c #F7D497",
"[!	c #87765A",
"]!	c #F7DBAA",
"^!	c #F9D9A0",
"_!	c #F4CF8F",
"`!	c #F1C77E",
"a!	c #D0A760",
"b!	c #3C3832",
"c!	c #313131",
"d!	c #5C5C5C",
"e!	c #564832",
"f!	c #F3CA85",
"g!	c #F7D496",
"h!	c #807055",
"i!	c #FDE0AD",
"j!	c #F5D08F",
"k!	c #CDA55E",
"l!	c #46423C",
"m!	c #6B6B6B",
"n!	c #363636",
"o!	c #484033",
"p!	c #EABC6E",
"q!	c #F1C77F",
"r!	c #F4CE8D",
"s!	c #6F5F44",
"t!	c #9A8561",
"u!	c #F7D395",
"v!	c #F4CC88",
"w!	c #F0C479",
"x!	c #8F7343",
"y!	c #7A7A7A",
"z!	c #444444",
"{!	c #3A3A39",
"|!	c #77623C",
"}!	c #EFC275",
"~!	c #EEC57F",
" #	c #ECC685",
"!#	c #E8C384",
"##	c #EEC783",
"$#	c #F1C67D",
"%#	c #E7B96C",
"&#	c #42392A",
"'#	c #898989",
"(#	c #919191",
")#	c #676158",
"*#	c #8F7447",
"+#	c #B08E54",
",#	c #876D43",
"-#	c #876E44",
".#	c #AB8A54",
"0#	c #DBB067",
"1#	c #5A4C34",
"2#	c #838383",
"3#	c #999999",
"4#	c #949494",
"5#	c #6C6C6C",
"6#	c #5A5A5A",
"7#	c #909090",
"8#	c #9E9E9E",
"9#	c #82817E",
":#	c #5F533F",
";#	c #766341",
"<#	c #897045",
"=#	c #705F42",
">#	c #5D5548",
"?#	c #9B9B9B",
"@#	c #A0A0A0",
"A#	c #6D6D6D",
"B#	c #848484",
"C#	c #101010",
"D#	c #ABABAB",
"E#	c #ACACAC",
"F#	c #A4A4A4",
"G#	c #3C3C3C",
"H#	c #B6B6B6",
"I#	c #B0B0B0",
"J#	c #B1B1B1",
"K#	c #B5B5B5",
"L#	c #606060",
"M#	c #C6C6C6",
"N#	c #636363",
"O#	c #727272",
"P#	c #BCBCBC",
"Q#	c #C4C4C4",
"R#	c #D5D5D5",
"S#	c #515151",
"T#	c #8B8B8B",
"U#	c #C5C5C5",
"V#	c #CCCCCC",
"W#	c #D0D0D0",
"X#	c #6E6E6E",
"Y#	c #E4E4E4",
"Z#	c #DCDCDC",
"[#	c #D9D9D9",
"]#	c #D6D6D6",
"^#	c #D4D4D4",
"_#	c #D3D3D3",
"`#	c #D7D7D7",
"a#	c #DBDBDB",
"b#	c #DFDFDF",
"c#	c #EAEAEA",
"d#	c #F3F3F3",
"e#	c #494949",
"f#	c #8E8E8E",
"g#	c #505050",
"h#	c #525252",
"i#	c #535353",
"j#	c #555555",
"k#	c #595959",
"! # $ % % & & & & & $ $ $ ' ' ' ' ' ( ( ( ( ( ) ) * + + + + , ! ",
"- . 0 1 1 1 1 1 1 1 1 1 1 1 1 1 1 1 1 1 1 1 1 1 1 1 2 3 4 5 4 - ",
"6 1 7 8 8 8 8 8 8 8 8 8 8 8 8 8 8 8 8 8 8 8 8 8 8 9 : ; < = > ? ",
"2 @ A B B B B B B B B B B B B B B B B B B B B B B B C D % % & E ",
"2 @ F G H F F F F I J F F F F K L F F F M N F F F F = O ! ! ! ! ",
"2 @ F 3 P F F F F Q 0 F F F F R S F F F R T L F F F = O ! ! ! ! ",
"2 @ F 3 P F F F F Q 0 F F F F R S F F L 2 8 U F F F = O ! ! ! ! ",
"2 @ F 3 P F F F F Q 0 F F F F R S F F V W X E Y F F = O ! ! ! ! ",
"2 @ F 3 P F F F F Q 0 F F F F R S F F & Z Y [ ] F F = O ! ! ! ! ",
"2 @ F 3 P F F F F N ^ F F F F _ ` F a b c d e 5 F F = O ! ! ! ! ",
"2 @ F 3 P F F F F I f g F F F - h F i j B B B k l F = O ! ! ! ! ",
"2 @ F 3 P F F F F F # m F F N ^ n o p q F F F r s F = O ! ! ! ! ",
"2 @ F 3 E = = = t F u O v = f w F x y F z { | 3 2 c = O ! ! ! ! ",
"2 @ F } ~ ~ ~ ~  !F F z !!#!$!F %!&!'!(!* $ )!*!+!9 , ,!! ! ! ! ",
"2 @ F F F F F F F F F F F F F F -!.!0!1!j 2!)!*!3!4!5!6![ ! ! ! ",
"2 @ F F F F F F F F F F F F F F +!7!( 2 j 2!)!*!3!4!%!8!- ! ! ! ",
"2 @ F F F F F F F F F F F F F F 9!U ( 2 ; :!;!<!=!>!%!8!- ! ! ! ",
"D f ?!F F F F F F F F F F F F F @!A!B!C!D!E!F!G!H!I!J!V - ! ! ! ",
"! @ T ! ! [ [ [ [ [ [ [ [ [ [ [ K!L!M!N!O!P!Q!R!S!T!U!V!L![ ! ! ",
"! y * 2!2!2!2!2!2!2!2!2!2!2!2!2!( # W!X!Y!Z![!]!^!_!`!a!b!W c!L!",
"& d!d!d!d!d!d!d!d!d!d!d!d!d!d!d!= c!e!X!f!g!h!i!^!j!`!k!l!d!d!' ",
"* m!m!m!m!m!m!m!m!m!m!m!m!m!m!4!r n!o!p!q!r!s!t!u!v!w!x!3!m!m!* ",
"+ y!y!y!y!y!y!y!y!y!y!y!y!y!y!` z!= {!|!}!~! #!###$#%#&#r P y!+ ",
"< '#'#'#'#'#'#'#'#'#'#'#'#'#'#5!e v (#)#*#+#,#-#.#0#1#2#m 5 x < ",
"n!3#3#3#3#3#3#3#3#3#3#3#3#3#4#5#6#4 7#8#9#:#;#<#=#>#?#@#8#A#t n!",
"B q q q q q q q q q q q q q A#. B#U C#t D#E#} @#E#D#D#} n F#3!B ",
"G#H#H#H#H#H#H#H#H#H#H#H#H#H#H#e S 9 2# !I#'!J J '!I#J# !N K#L#G#",
"4 M#M#M#M#M#M#M#M#M#M#M#M#M#M#N#O#| @#P#K G K#K#H#l $!g H Q#s 4 ",
"A R#R#R#R#R#R#R#R#R#R#R#R#R#R#S#8!S T#I M#z ?!H ?!U#o V#W#R#X#A ",
"9!Y#Y#Y#Y#Y#Y#Y#Y#Y#Y#Y#Y#Y#Y#4 !!h S Z#[#]#^#_#^#`#a#b#Y#Y#5!9!",
"$ c#d#d#d#d#d#d#d#d#d#d#d#d#d#e#= r 0!(#f#'#h &!&!&!&!B#B#(!8 $ ",
"! 2!3!3!3!3!3!3!3!3!3!3!3!3!3!| g#S#h#h#i#8 j#+!+!i | k#6#k#+ ! "};