/* XPM */ 
static const char * bt_stop_game_xpm[] = {
"32 32 114 2",
"  	c None",
"! 	c #1A1A1A",
"# 	c #222222",
"$ 	c #292929",
"% 	c #2A2A2A",
"& 	c #2B2B2B",
"' 	c #2C2C2C",
"( 	c #2D2D2D",
") 	c #2E2E2E",
"* 	c #2F2F2F",
"+ 	c #272727",
", 	c #727272",
"- 	c #1E1E1E",
". 	c #313131",
"0 	c #323232",
"1 	c #333333",
"2 	c #343434",
"3 	c #353535",
"4 	c #363636",
"5 	c #373737",
"6 	c #383838",
"7 	c #393939",
"8 	c #3A3A3A",
"9 	c #3B3B3B",
": 	c #3C3C3C",
"; 	c #3D3D3D",
"< 	c #3E3E3E",
"= 	c #3F3F3F",
"> 	c #404040",
"? 	c #414141",
"@ 	c #212121",
"A 	c #1D1D1D",
"B 	c #242424",
"C 	c #252525",
"D 	c #262626",
"E 	c #282828",
"F 	c #303030",
"G 	c #1B1B1B",
"H 	c #1C1C1C",
"I 	c #1F1F1F",
"J 	c #202020",
"K 	c #232323",
"L 	c #171717",
"M 	c #131313",
"N 	c #181818",
"O 	c #060202",
"P 	c black",
"Q 	c #060302",
"R 	c #151515",
"S 	c #E70500",
"T 	c #F70900",
"U 	c #F70C00",
"V 	c #F70F00",
"W 	c #F71200",
"X 	c #F71600",
"Y 	c #F71A00",
"Z 	c #F71D00",
"[ 	c #F72100",
"] 	c #F72500",
"^ 	c #F72900",
"_ 	c #F72C00",
"` 	c #F72F00",
"a 	c #F73300",
"b 	c #F73600",
"c 	c #F73A00",
"d 	c #F73D00",
"e 	c #E73D00",
"f 	c #EF0500",
"g 	c #FF0900",
"h 	c #FF0C00",
"i 	c #FF1000",
"j 	c #FF1300",
"k 	c #FF1700",
"l 	c #FF1B00",
"m 	c #FF1E00",
"n 	c #FF2200",
"o 	c #FF2600",
"p 	c #FF2A00",
"q 	c #FF2D00",
"r 	c #FF3100",
"s 	c #FF3500",
"t 	c #FF3800",
"u 	c #FF3C00",
"v 	c #FF3F00",
"w 	c #EF3F00",
"x 	c #161616",
"y 	c #4D4D4D",
"z 	c #484848",
"{ 	c #5C5C5C",
"| 	c #4B4B4B",
"} 	c #6B6B6B",
"~ 	c #575757",
" !	c #7A7A7A",
"!!	c #636363",
"#!	c #898989",
"$!	c #6F6F6F",
"%!	c #999999",
"&!	c #7C7C7C",
"'!	c #A8A8A8",
"(!	c #989898",
")!	c #0E0A0A",
"*!	c #0E0B0A",
"+!	c #B6B6B6",
",!	c #A0A0A0",
"-!	c #888888",
".!	c #C6C6C6",
"0!	c #434343",
"1!	c #D5D5D5",
"2!	c #464646",
"3!	c #E4E4E4",
"4!	c #EAEAEA",
"5!	c #F3F3F3",
"6!	c #5B5B5B",
"7!	c #5A5A5A",
"! # $ $ $ % % % % % & & & ' ' ' ' ' ( ( ( ( ( ) ) ) * * * * + , ",
"- . . 0 0 1 2 2 3 3 4 5 5 6 7 7 7 7 8 9 9 : : ; < < = > > ? > @ ",
"A B B C D D + + + E E $ % % & & ' ( ( ) * * F F F . . 0 0 1 2 @ ",
"! ! ! ! ! ! ! ! ! G H H A - - - - I J J @ @ # K K B C C D D + A ",
"! ! ! ! ! ! ! ! ! ! ! ! ! ! ! ! ! ! ! ! ! ! ! ! ! ! ! ! ! ! ! ! ",
"! ! ! ! ! ! L M M M M M M M M M M M M M M M M M M L ! ! ! ! ! ! ",
"! ! ! ! ! N O P P P P P P P P P P P P P P P P P P Q N ! ! ! ! ! ",
"! ! ! ! ! R P S T U V W X Y Z [ ] ^ _ ` a b c d e P R ! ! ! ! ! ",
"! ! ! ! ! R P f g h i j k l m n o p q r s t u v w P R ! ! ! ! ! ",
"! ! ! ! ! R P f g h i j k l m n o p q r s t u v w P R ! ! ! ! ! ",
"! ! ! ! ! R P f g h i j k l m n o p q r s t u v w P R ! ! ! ! ! ",
"! ! ! ! ! R P f g h i j k l m n o p q r s t u v w P R ! ! ! ! ! ",
"! ! ! ! ! R P f g h i j k l m n o p q r s t u v w P R ! ! ! ! ! ",
"! ! ! ! ! R P f g h i j k l m n o p q r s t u v w P R ! ! ! ! ! ",
"! ! ! ! ! R P f g h i j k l m n o p q r s t u v w P R ! ! ! ! ! ",
"! ! ! ! ! R P f g h i j k l m n o p q r s t u v w P R ! ! ! ! ! ",
"! ! ! ! ! R P f g h i j k l m n o p q r s t u v w P R ! ! ! ! ! ",
"! ! ! ! ! x P f g h i j k l m n o p q r s t u v w P N ! ! ! ! ! ",
"! ! ! B 1 0 P f g h i j k l m n o p q r s t u v w P 0 6 $ G ! ! ",
"! C > y y = P f g h i j k l m n o p q r s t u v w P = y y z . H ",
"+ { { { { | P f g h i j k l m n o p q r s t u v w P | { { { { $ ",
"' } } } } ~ P f g h i j k l m n o p q r s t u v w P ~ } } } } ' ",
"*  ! ! ! !!!P f g h i j k l m n o p q r s t u v w P !! ! ! ! !* ",
"0 #!#!#!#!$!P f g h i j k l m n o p q r s t u v w P $!#!#!#!#!0 ",
"4 %!%!%!%!&!P S T U V W X Y Z [ ] ^ _ ` a b c d e P &!%!%!%!%!4 ",
"7 '!'!'!'!(!)!P P P P P P P P P P P P P P P P P P *!(!'!'!'!'!7 ",
": +!+!+!+!+!,!-!-!-!-!-!-!-!-!-!-!-!-!-!-!-!-!-!-!,!+!+!+!+!+!: ",
"> .!.!.!.!.!.!.!.!.!.!.!.!.!.!.!.!.!.!.!.!.!.!.!.!.!.!.!.!.!.!> ",
"0!1!1!1!1!1!1!1!1!1!1!1!1!1!1!1!1!1!1!1!1!1!1!1!1!1!1!1!1!1!1!0!",
"2!3!3!3!3!3!3!3!3!3!3!3!3!3!3!3!3!3!3!3!3!3!3!3!3!3!3!3!3!3!3!2!",
"+ 4!5!5!5!5!5!5!5!5!5!5!5!5!5!5!5!5!5!5!5!5!5!5!5!5!5!5!5!5!4!+ ",
"! * 6!6!6!6!6!6!6!6!6!6!6!6!6!6!6!6!6!6!6!6!6!6!6!6!6!6!6!7!) ! "};