/* XPM */ 
static const char * bt_save_project_xpm[] = {
"32 32 354 2",
"  	c None",
"! 	c #1A1A1A",
"# 	c #222222",
"$ 	c #292929",
"% 	c #2A2A2A",
"& 	c #2B2B2B",
"' 	c #2C2C2C",
"( 	c #2D2D2D",
") 	c #2E2E2E",
"* 	c #2F2F2F",
"+ 	c #242424",
", 	c #1E1E1E",
"- 	c #313131",
". 	c #323232",
"0 	c #333333",
"1 	c #343434",
"2 	c #353535",
"3 	c #363636",
"4 	c #373737",
"5 	c #383838",
"6 	c #393939",
"7 	c #3A3A3A",
"8 	c #3B3B3B",
"9 	c #3C3C3C",
": 	c #3D3D3D",
"; 	c #3E3E3E",
"< 	c #3F3F3F",
"= 	c #404040",
"> 	c #414141",
"? 	c #1D1D1D",
"@ 	c #252525",
"A 	c #464646",
"B 	c #474747",
"C 	c #484848",
"D 	c #494949",
"E 	c #4A4A4A",
"F 	c #4B4B4B",
"G 	c #4C4C4C",
"H 	c #4D4D4D",
"I 	c #4E4E4E",
"J 	c #4F4F4F",
"K 	c #505050",
"L 	c #212121",
"M 	c #10103F",
"N 	c #603977",
"O 	c #BF494C",
"P 	c #BD4244",
"Q 	c #BD4345",
"R 	c #C0737F",
"S 	c #070776",
"T 	c #181847",
"U 	c #272727",
"V 	c #19191D",
"W 	c #020279",
"X 	c #8D3B5F",
"Y 	c #BD4346",
"Z 	c #BD4446",
"[ 	c #BD4447",
"] 	c #191789",
"^ 	c #171727",
"_ 	c #030382",
"` 	c #854976",
"a 	c #BE4E52",
"b 	c #BF4E52",
"c 	c #C46166",
"d 	c #1A1A8D",
"e 	c #040482",
"f 	c #7270B6",
"g 	c #D9BDC9",
"h 	c #D7B7C3",
"i 	c #D8B8C3",
"j 	c #D9B9C3",
"k 	c #D9B9C4",
"l 	c #E1D9E5",
"m 	c #1B1B8E",
"n 	c #050583",
"o 	c #060683",
"p 	c #7070B8",
"q 	c #DFDFEF",
"r 	c #77777F",
"s 	c #CECEDC",
"t 	c #8C8C96",
"u 	c #BCBCCA",
"v 	c #D0D0DF",
"w 	c #686870",
"x 	c #B2B2BF",
"y 	c #C4C4D2",
"z 	c #BFBFCC",
"{ 	c #7B7B84",
"| 	c #D5D5E4",
"} 	c #E0E0F0",
"~ 	c #1E1E8F",
" !	c #070783",
"!!	c #7070B7",
"#!	c #DBDBED",
"$!	c #8B8B96",
"%!	c #4A4A50",
"&!	c #DCDCED",
"'!	c #ABABB8",
"(!	c #343438",
")!	c #DADAEB",
"*!	c #C0C0CE",
"+!	c #121214",
",!	c #6B6B73",
"-!	c #131314",
".!	c #A0A0AC",
"0!	c #232325",
"1!	c #C7C7D7",
"2!	c #20208F",
"3!	c #070784",
"4!	c #080884",
"5!	c #6F6FB7",
"6!	c #D7D7EB",
"7!	c #404046",
"8!	c #8A8A97",
"9!	c #29292D",
":!	c #B6B6C7",
";!	c #BBBBCD",
"<!	c #3A3A40",
"=!	c #C9C9DB",
">!	c #2E2E32",
"?!	c #4C4C53",
"@!	c #9D9DAB",
"A!	c #D8D8EC",
"B!	c #222225",
"C!	c #C4C4D6",
"D!	c #D9D9EC",
"E!	c #222291",
"F!	c #090984",
"G!	c #6F6FB8",
"H!	c #D4D4EA",
"I!	c #C0C0D4",
"J!	c #131315",
"K!	c #777784",
"L!	c #BABACD",
"M!	c #333338",
"N!	c #878794",
"O!	c #7F7F8D",
"P!	c #A0A0B1",
"Q!	c #666671",
"R!	c #55555E",
"S!	c #9D9DAD",
"T!	c #2B2B2F",
"U!	c #C2C2D5",
"V!	c #D5D5EA",
"W!	c #242492",
"X!	c #0A0A85",
"Y!	c #D0D0E8",
"Z!	c #D1D1E8",
"[!	c #8D8D9D",
"]!	c #37373D",
"^!	c #595963",
"_!	c #B9B9CE",
"`!	c #3C3C43",
"a!	c #C7C7DD",
"b!	c #43434B",
"c!	c #5C5C66",
"d!	c #B0B0C4",
"e!	c #9E9EB0",
"f!	c #34343A",
"g!	c #BFBFD5",
"h!	c #262693",
"i!	c #0B0B85",
"j!	c #CDCDE6",
"k!	c #BCBCD3",
"l!	c #404048",
"m!	c #C1C1D9",
"n!	c #55555F",
"o!	c #9898AB",
"p!	c #B8B8CE",
"q!	c #45454D",
"r!	c #CECEE7",
"s!	c #5F5F6A",
"t!	c #494952",
"u!	c #62626E",
"v!	c #9F9FB3",
"w!	c #3E3E45",
"x!	c #BEBED5",
"y!	c #282894",
"z!	c #0C0C86",
"{!	c #6E6EB6",
"|!	c #CACAE4",
"}!	c #5E5E6A",
"~!	c #9999AE",
" #	c #CACAE5",
"!#	c #B9B9D1",
"##	c #484851",
"$#	c #C0C0D9",
"%#	c #B6B6CE",
"&#	c #4D4D58",
"'#	c #BCBCD5",
"(#	c #686876",
")#	c #A0A0B5",
"*#	c #CBCBE5",
"+#	c #474750",
",#	c #8F8FA2",
"-#	c #9A9AAD",
".#	c #B1B1C8",
"0#	c #2A2A95",
"1#	c #0D0D86",
"2#	c #4848A4",
"3#	c #BEBEDF",
"4#	c #C7C7E3",
"5#	c #B9B9D3",
"6#	c #8D8DA1",
"7#	c #A0A0B6",
"8#	c #A6A6BE",
"9#	c #BEBED9",
":#	c #8E8EA2",
";#	c #9B9BB0",
"<#	c #B4B4CD",
"=#	c #C8C8E3",
">#	c #8C8C9F",
"?#	c #808092",
"@#	c #A2A2B8",
"A#	c #A3A3D1",
"B#	c #0E0E87",
"C#	c #272794",
"D#	c #292995",
"E#	c #252592",
"F#	c #0F0F88",
"G#	c #272793",
"H#	c #0F0F87",
"I#	c #101088",
"J#	c #292994",
"K#	c #111189",
"L#	c #2B2B95",
"M#	c #2C2C96",
"N#	c #111188",
"O#	c #202030",
"P#	c #121289",
"Q#	c #2D2D96",
"R#	c #37379B",
"S#	c #5B5BAD",
"T#	c #6363B1",
"U#	c #6464B1",
"V#	c #6464B2",
"W#	c #6565B2",
"X#	c #6666B3",
"Y#	c #6767B3",
"Z#	c #4141A1",
"[#	c #2E2E97",
"]#	c #2F2F97",
"^#	c #2B2B3B",
"_#	c #1C1C1C",
"`#	c #505060",
"a#	c #13138A",
"b#	c #7373B9",
"c#	c #5A5AAD",
"d#	c #1D1D8F",
"e#	c #6161B0",
"f#	c #8E8EC7",
"g#	c #8F8FC7",
"h#	c #9090C8",
"i#	c #9191C8",
"j#	c #8B8BC5",
"k#	c #34349A",
"l#	c #313198",
"m#	c #131389",
"n#	c #5E5E6E",
"o#	c #14148A",
"p#	c #323299",
"q#	c #8D8DC6",
"r#	c #000080",
"s#	c #19198C",
"t#	c #9696CB",
"u#	c #9797CB",
"v#	c #9898CB",
"w#	c #9999CC",
"x#	c #4444A2",
"y#	c #6B6B7B",
"z#	c #15158B",
"{#	c #9494CA",
"|#	c #9E9ECE",
"}#	c #9E9ECF",
"~#	c #9F9FCF",
" $	c #A0A0D0",
"!$	c #A1A1D0",
"#$	c #4747A3",
"$$	c #36369B",
"%$	c #15158A",
"&$	c #787888",
"'$	c #16168B",
"($	c #9B9BCD",
")$	c #A5A5D2",
"*$	c #A6A6D3",
"+$	c #A7A7D3",
",$	c #A8A8D4",
"-$	c #A9A9D4",
".$	c #4B4BA5",
"0$	c #39399C",
"1$	c #868696",
"2$	c #17178C",
"3$	c #ACACD6",
"4$	c #ADADD6",
"5$	c #AEAED7",
"6$	c #AFAFD7",
"7$	c #B0B0D7",
"8$	c #B1B1D8",
"9$	c #4D4DA6",
":$	c #3B3B9D",
";$	c #17178B",
"<$	c #9393A3",
"=$	c #18188C",
">$	c #3C3C9E",
"?$	c #AAAAD5",
"@$	c #B4B4DA",
"A$	c #B5B5DA",
"B$	c #B6B6DA",
"C$	c #B7B7DB",
"D$	c #5151A9",
"E$	c #3E3E9F",
"F$	c #9F9FAF",
"G$	c #1C1C8E",
"H$	c #BBBBDD",
"I$	c #BCBCDD",
"J$	c #BDBDDE",
"K$	c #BFBFDF",
"L$	c #5454AA",
"M$	c #4040A0",
"N$	c #4141A0",
"O$	c #BDBDC3",
"P$	c #39399D",
"Q$	c #B2B2D8",
"R$	c #4545A2",
"S$	c #4242A1",
"T$	c #9595CA",
"U$	c #C2C2E1",
"V$	c #C3C3E1",
"W$	c #C4C4E2",
"X$	c #C5C5E2",
"Y$	c #5151A8",
"Z$	c #4343A1",
"[$	c #0A0A84",
"]$	c #434343",
"^$	c #D5D5D5",
"_$	c #7272AE",
"`$	c #0B0B84",
"a$	c #6060B0",
"b$	c #B6B6DB",
"c$	c #B8B8DC",
"d$	c #B9B9DC",
"e$	c #BABADD",
"f$	c #BCBCDE",
"g$	c #8787C3",
"h$	c #E4E4E4",
"i$	c #DADAE0",
"j$	c #CBCBDA",
"k$	c #CDCDDB",
"l$	c #CDCDDC",
"m$	c #EAEAEA",
"n$	c #F3F3F3",
"o$	c #5B5B5B",
"p$	c #5A5A5A",
"! # $ $ $ % % % % % & & & ' ' ' ' ' ( ( ( ( ( ) ) ) * * * * + ! ",
", - - . . 0 1 1 2 2 3 4 4 5 6 6 6 6 7 8 8 9 9 : ; ; < = = > = , ",
"? + + @ 7 A B B B C C D E E F F F G G H I I J J J K K 5 . 0 1 L ",
"! ! M N O P P P P P P P P P P P P P P P P P P P P P Q R S T U ? ",
"! V W X Y Y Y Y Y Y Y Y Y Y Y Y Y Y Y Y Y Y Y Y Z Z Z [ ] W V ! ",
"! ^ _ ` a a a a a b b b b b b b b b b b b b b b b b b c d e ^ ! ",
"! ^ e f g h h h h h h h i i i i i i i i i i j j j j k l m n ^ ! ",
"! ^ o p q q q r s q q t u v w x q q y w z q { | } } } } ~ o ^ ! ",
"! ^  !!!#!#!#!$!%!&!'!(!)!*!+!%!&!&!,!-!.!&!0!1!&!&!&!&!2!3!^ ! ",
"! ^ 4!5!6!6!6!6!7!8!9!:!6!;!9!<!=!6!>!?!@!A!B!C!A!A!D!D!E!4!^ ! ",
"! ^ F!G!H!H!H!H!I!J!K!H!H!L!M!N!O!P!Q!R!S!H!T!U!V!V!V!V!W!F!^ ! ",
"! ^ X!5!Y!Y!Z!Z![!]!^!Z!Z!_!`!a!b!c!d!c!e!Z!f!g!Z!Z!Z!Z!h!X!^ ! ",
"! ^ i!5!j!j!j!k!l!m!n!o!j!p!q!r!s!t!r!u!v!r!w!x!r!r!r!r!y!i!^ ! ",
"! ^ z!{!|!|!|!}!~! #!###$#%#&# #$#'# #(#)#*#+#,#-#-#.#*#0#z!^ ! ",
"! ^ 1#2#3#4#5#6#4#4#4#7#8#9#:#4#4#4#4#;#<#=#>#?#?#?#@#A#E!1#^ ! ",
"! ^ B#E!W!C#y!y!y!y!y!y!y!y!y!y!D#D#D#D#D#D#D#D#D#0#0#E#E#B#^ ! ",
"! ^ F#E#E#E#E#E#E#E#E#h!h!h!h!h!h!h!h!h!G#G#G#G#G#G#G#G#G#H#^ ! ",
"! ^ I#G#G#G#y!y!y!y!y!y!y!y!y!J#J#J#J#J#J#J#J#J#J#0#0#0#0#I#^ ! ",
"! ^ K#0#0#0#0#0#0#0#0#L#L#L#L#L#L#L#L#L#M#M#M#M#M#M#M#M#M#N#^ ! ",
"! O#P#M#M#M#Q#Q#R#S#T#T#U#U#V#W#X#X#X#Y#Y#Y#T#Z#[#]#]#]#]#P#^#_#",
"U `#a#]#]#]#]#]#b#c#d#d d ~ e#f#f#g#g#h#h#i#i#j#k#l#l#l#l#m#`#$ ",
"' n#o#l#l#l#p#p#q#m#r#r#r#r#s#t#t#u#u#v#w#w#w#w#x#k#k#k#k#o#n#' ",
"* y#z#k#k#k#k#k#{#B#r#r#r#r#m#|#}#}#~# $ $ $!$!$#$$$$$$$$$%$y#* ",
". &$'$$$$$R#R#R#($H#r#r#r#r#o#)$*$*$+$+$,$,$,$-$.$0$0$0$0$z#&$. ",
"3 1$2$0$0$0$0$0$A#F#r#r#r#r#%$3$4$5$5$6$6$7$7$8$9$:$:$:$:$;$1$3 ",
"6 <$=$:$:$>$>$>$?$I#r#r#r#r#'$@$@$A$A$B$B$C$C$C$D$E$E$E$E$2$<$6 ",
"9 F$'$E$E$E$E$E$8$G$r#r#r#r#W!H$H$I$I$J$3#3#K$K$L$M$M$M$N$%$F$9 ",
"= O$i!P$M$N$N$N$Q$g#R$S$S$#$T$U$U$V$V$W$W$W$X$X$Y$Z$Z$Z$:$[$O$= ",
"]$^$_$`$m#%$%$%$a$b$c$d$d$e$e$H$f$f$J$J$3#3#K$g$'$'$'$m#[$_$^$]$",
"A h$h$i$1!1!1!1!1!j$k$k$l$l$s s s s s s s s k$1!1!1!1!1!i$h$h$A ",
"U m$n$n$n$n$n$n$n$n$n$n$n$n$n$n$n$n$n$n$n$n$n$n$n$n$n$n$n$n$m$U ",
"! * o$o$o$o$o$o$o$o$o$o$o$o$o$o$o$o$o$o$o$o$o$o$o$o$o$o$o$p$) ! "};