/* XPM */ 
static const char * bt_terrain_add_segment_xpm[] = {
"32 32 299 2",
"  	c None",
"! 	c #1A1A1A",
"# 	c #222222",
"$ 	c #292929",
"% 	c #2A2A2A",
"& 	c #2B2B2B",
"' 	c #2C2C2C",
"( 	c #2D2D2D",
") 	c #2E2E2E",
"* 	c #2F2F2F",
"+ 	c #242424",
", 	c #1E1E1E",
"- 	c #272727",
". 	c #1C1C1C",
"0 	c #1D1D1D",
"1 	c #1F1F1F",
"2 	c #111B10",
"3 	c #0D1D0A",
"4 	c #152613",
"5 	c #182815",
"6 	c #192916",
"7 	c #1A2A17",
"8 	c #1A2B18",
"9 	c #1B2C18",
": 	c #1C2E1A",
"; 	c #1D2F1B",
"< 	c #1E301B",
"= 	c #1F301C",
"> 	c #20321E",
"? 	c #21331E",
"@ 	c #21341F",
"A 	c #323531",
"B 	c #191919",
"C 	c #787832",
"D 	c #4F4F4F",
"E 	c #73733F",
"F 	c #59594A",
"G 	c #51514E",
"H 	c #5F5F48",
"I 	c #78783D",
"J 	c #163112",
"K 	c #198608",
"L 	c #1E8C0C",
"M 	c #239211",
"N 	c #279816",
"O 	c #2C9D1A",
"P 	c #31A31F",
"Q 	c #36A924",
"R 	c #3AAF28",
"S 	c #3FB52D",
"T 	c #44BB31",
"U 	c #48C136",
"V 	c #4DC73B",
"W 	c #52CC3F",
"X 	c #4CB83B",
"Y 	c #222B20",
"Z 	c #212121",
"[ 	c #141414",
"] 	c #58583E",
"^ 	c #98982E",
"_ 	c #9B9B2D",
"` 	c #616147",
"a 	c #9A9A2E",
"b 	c #656545",
"c 	c #95952F",
"d 	c #696944",
"e 	c #8D8D33",
"f 	c #1B2419",
"g 	c #454545",
"h 	c #646446",
"i 	c #96962F",
"j 	c #9C9C2D",
"k 	c #5A5A4A",
"l 	c #686844",
"m 	c #97972F",
"n 	c #949430",
"o 	c #141D12",
"p 	c #56563F",
"q 	c #666644",
"r 	c #939330",
"s 	c #9C9C2C",
"t 	c #5B5B4A",
"u 	c #6A6A43",
"v 	c #939331",
"w 	c #6B6B37",
"x 	c #888835",
"y 	c #919132",
"z 	c #9D9D2C",
"{ 	c #6D6D42",
"| 	c #8F8F32",
"} 	c #78783C",
"~ 	c #72723F",
" !	c #898935",
"!!	c #9E9E2C",
"#!	c #5B5B49",
"$!	c #6F6F40",
"%!	c #8C8C34",
"&!	c #8A8A35",
"'!	c #8A8A34",
"(!	c #9E9E2B",
")!	c #464645",
"*!	c #5D5D49",
"+!	c #727240",
",!	c #888836",
"-!	c #9F9F2B",
".!	c #5C5C49",
"0!	c #75753E",
"1!	c #50504E",
"2!	c #717140",
"3!	c #76763E",
"4!	c #848437",
"5!	c #A0A02B",
"6!	c #5C5C3C",
"7!	c #55554C",
"8!	c #58584B",
"9!	c #707040",
":!	c #8B8B34",
";!	c #818138",
"<!	c #A0A02A",
"=!	c #4C4C42",
">!	c #A3A329",
"?!	c #52524E",
"@!	c #57574C",
"A!	c #7B7B3B",
"B!	c #7F7F3A",
"C!	c #56564C",
"D!	c #A3A32A",
"E!	c #55554D",
"F!	c #52524D",
"G!	c #6F6F41",
"H!	c #8C8C33",
"I!	c #6C6C36",
"J!	c #A1A12A",
"K!	c #54544D",
"L!	c #53534D",
"M!	c #494943",
"N!	c #7F7F39",
"O!	c #6B6B42",
"P!	c #6E6E41",
"Q!	c #7D7D3B",
"R!	c #112B0D",
"S!	c #131C12",
"T!	c #151515",
"U!	c #1E1E1C",
"V!	c #0F1D06",
"W!	c #19390E",
"X!	c #163710",
"Y!	c #1F400F",
"Z!	c #193A13",
"[!	c #1A3C15",
"]!	c #1B3D16",
"^!	c #1D3F18",
"_!	c #1E4119",
"`!	c #20441A",
"a!	c #21451B",
"b!	c #22461D",
"c!	c #294E1C",
"d!	c #254A20",
"e!	c #22431D",
"f!	c #111710",
"g!	c #1B1B1B",
"h!	c #999929",
"i!	c #616141",
"j!	c #6F6F3B",
"k!	c #898930",
"l!	c #4A4A4A",
"m!	c #6B6B3D",
"n!	c #7F7F35",
"o!	c #92922D",
"p!	c #5E5E42",
"q!	c #9D9D28",
"r!	c #424240",
"s!	c #333333",
"t!	c #3D3D3D",
"u!	c #3E3E3E",
"v!	c #97972B",
"w!	c #646440",
"x!	c #69693E",
"y!	c #90902E",
"z!	c #797937",
"{!	c #818134",
"|!	c #95952B",
"}!	c #535347",
"~!	c #414141",
" #	c #252525",
"!#	c #404040",
"##	c #4D4D4D",
"$#	c #232323",
"%#	c #4E4E49",
"&#	c #93932C",
"'#	c #66663E",
"(#	c #626240",
")#	c #96962B",
"*#	c #4B4B4A",
"+#	c #767638",
",#	c #838332",
"-#	c #98982A",
".#	c #5C5C5C",
"0#	c #2C2C26",
"1#	c #9E9E28",
"2#	c #535346",
"3#	c #90902D",
"4#	c #69693D",
"5#	c #5C5C42",
"6#	c #9B9B29",
"7#	c #4C4C49",
"8#	c #727239",
"9#	c #868632",
":#	c #353535",
";#	c #6B6B6B",
"<#	c #9C9C28",
"=#	c #575744",
">#	c #8D8D2F",
"?#	c #6C6C3C",
"@#	c #9E9E27",
"A#	c #4E4E48",
"B#	c #888830",
"C#	c #3C3C3C",
"D#	c #7A7A7A",
"E#	c #5F5F42",
"F#	c #4B4B49",
"G#	c #9A9A29",
"H#	c #8A8A30",
"I#	c #A0A027",
"J#	c #525247",
"K#	c #8B8B30",
"L#	c #444444",
"M#	c #323232",
"N#	c #898989",
"O#	c #313131",
"P#	c #757538",
"Q#	c #636340",
"R#	c #868631",
"S#	c #72723A",
"T#	c #505048",
"U#	c #555545",
"V#	c #878731",
"W#	c #4B4B4B",
"X#	c #363636",
"Y#	c #999999",
"Z#	c #343434",
"[#	c #888831",
"]#	c #6A6A3D",
"^#	c #757539",
"_#	c #4D4D49",
"`#	c #5A5A43",
"a#	c #535353",
"b#	c #393939",
"c#	c #A8A8A8",
"d#	c #383838",
"e#	c #6E6E3B",
"f#	c #70703A",
"g#	c #808034",
"h#	c #777738",
"i#	c #5B5B5B",
"j#	c #B6B6B6",
"k#	c #3B3B3B",
"l#	c #828233",
"m#	c #6B6B3C",
"n#	c #777737",
"o#	c #7D7D35",
"p#	c #7A7A37",
"q#	c #94942C",
"r#	c #47473F",
"s#	c #626262",
"t#	c #C6C6C6",
"u#	c #3F3F3F",
"v#	c #7C7C36",
"w#	c #7B7B36",
"x#	c #68683E",
"y#	c #8F8F2E",
"z#	c #7C7C35",
"{#	c #6A6A6A",
"|#	c #434343",
"}#	c #D5D5D5",
"~#	c #434342",
" $	c #818133",
"!$	c #65653F",
"#$	c #7F7F34",
"$$	c #717171",
"%$	c #464646",
"&$	c #E4E4E4",
"'$	c #7D7D30",
"($	c #707035",
")$	c #6C6C37",
"*$	c #696938",
"+$	c #5D5D3C",
",$	c #676739",
"-$	c #8A8A2C",
".$	c #555536",
"0$	c #797979",
"1$	c #EAEAEA",
"2$	c #F3F3F3",
"3$	c #969696",
"4$	c #777777",
"5$	c #7A7A74",
"6$	c #7F7F6F",
"7$	c #BDBDBD",
"8$	c #5A5A5A",
"! # $ $ $ % % % % % & & & ' ' ' ' ' ( ( ( ( ( ) ) ) * * * * + ! ",
", - . 0 0 0 , , , , , 1 1 1 1 2 3 4 5 6 7 8 9 : ; < = > ? @ A , ",
"0 B C D E F D G D D H D D I D J K L M N O P Q R S T U V W X Y Z ",
"! [ ] ^ G _ F ` a D b c D d e J K L M N O P Q R S T U V W X f 0 ",
"! [ g h i G j k l m D b n D D J K L M N O P Q R S T U V W X o ! ",
"! [ p D q r G s t u v D b v D J K L M N O P Q R S T U V W X o ! ",
"! [ w x D u y G z t { | D b } J K L M N O P Q R S T U V W X o ! ",
"! [ g ~  !D { e G !!#!$!%!D D J K L M N O P Q R S T U V W X o ! ",
"! [ ] H ~ &!D $!'!G (!#!~ x D J K L M N O P Q R S T U V W X o ! ",
"! [ )!j *!+!'!D ~ ,!G -!.!0!~ J K L M N O P Q R S T U V W X o ! ",
"! [ g 1!s k 2!'!D 3!4!G 5!*!D J K L M N O P Q R S T U V W X o ! ",
"! [ 6!7!G z 8!9!:!D } ;!G <!*!J K L M N O P Q R S T U V W X o ! ",
"! [ =!>!7!?!z @!$!%!D A!B!G  !J K L M N O P Q R S T U V W X o ! ",
"! [ g C!D!E!F!z E!G!H!D B!A!D J K L M N O P Q R S T U V W X o ! ",
"! [ I!C!C!J!E!K!s L!G!e D ;!} J K L M N O P Q R S T U V W X o ! ",
"! [ M!s D C!N!D 7!O!D P!,!D Q!R!K L M N O P Q R S T U V W X S!! ",
"! T!! . . . . . . . . . U!. . V!W!X!Y!Z![!]!^!_!`!a!b!c!d!e!f!! ",
"! ! ! ! ! g!# $ ) * * * * * * . h!i!j!k!l!m!n!l!m!o!l!p!q!r![ ! ",
"! ! ! + s!t!u!u!u!u!u!u!u!u!u!1 l!v!w!x!y!l!z!{!l!x!|!l!}!~![ ! ",
"!  #!#########################$#%#l!&#'#(#)#*#+#,#l!(#-#l!~!1 . ",
"- .#.#.#.#.#.#.#.#.#.#.#.#.#.#0#1#2#l!3#4#5#6#7#8#9#l!5#3#~!:#$ ",
"' ;#;#;#;#;#;#;#;#;#;#;#;#;#;#% %#<#=#l!>#?#=#@#A#j!B#l!l!~!C#' ",
"* D#D#D#D#D#D#D#D#D#D#D#D#D#D#( E#F#G#5#l!H#j!2#I#J#?#K#l!~!L#* ",
"M#N#N#N#N#N#N#N#N#N#N#N#N#N#N#O#P#9#l!)#Q#l!R#S#T#I#U#x!V#~!W#M#",
"X#Y#Y#Y#Y#Y#Y#Y#Y#Y#Y#Y#Y#Y#Y#Z#l!S#[#l!3#]#l!,#^#_#1#`#F#~!a#X#",
"b#c#c#c#c#c#c#c#c#c#c#c#c#c#c#d#=#l!e#K#l!H#f#l!g#h#F#G#i!~!i#b#",
"C#j#j#j#j#j#j#j#j#j#j#j#j#j#j#k#l#P#l!m#>#l!,#n#l!o#p#l!q#r#s#C#",
"!#t#t#t#t#t#t#t#t#t#t#t#t#t#t#u#l!v#w#l!x#y#l!o#n!l!p#z#l!~!{#!#",
"|#}#}#}#}#}#}#}#}#}#}#}#}#}#}#~#]#l!+# $l!!$o!l!h#9#l!h##$~!$$|#",
"%$&$&$&$&$&$&$&$&$&$&$&$&$&$&$L#'$($g )$*$g +$,$g I!-$g ($.$0$%$",
"- 1$2$2$2$2$2$2$2$2$2$2$2$2$2$3$4$5$4$4$4$4$4$4$4$4$6$4$4$4$7$- ",
"! * i#i#i#i#i#i#i#i#i#i#i#i#i#i#i#i#i#i#i#i#i#i#i#i#i#i#i#8$) ! "};