/* XPM */ 
static const char * bt_terrain_paint_vegetation_xpm[] = {
"32 32 278 2",
"  	c None",
"! 	c #1A1A1A",
"# 	c #222222",
"$ 	c #292929",
"% 	c #2A2A2A",
"& 	c #2B2B2B",
"' 	c #2C2C2C",
"( 	c #2D2D2D",
") 	c #2E2E2E",
"* 	c #2F2F2F",
"+ 	c #242424",
", 	c #1E1E1E",
"- 	c #313131",
". 	c #323232",
"0 	c #333333",
"1 	c #343434",
"2 	c #353535",
"3 	c #363636",
"4 	c #373737",
"5 	c #383838",
"6 	c #393939",
"7 	c #3A3A3A",
"8 	c #3B3B3B",
"9 	c #3C3C3C",
": 	c #3D3D3D",
"; 	c #3E3E3E",
"< 	c #3F3F3F",
"= 	c #404040",
"> 	c #414141",
"? 	c #1D1D1D",
"@ 	c #252525",
"A 	c #262626",
"B 	c #272727",
"C 	c #282828",
"D 	c #2A2D29",
"E 	c #324F2D",
"F 	c #2E3C2C",
"G 	c #2C2D2C",
"H 	c #303030",
"I 	c #212121",
"J 	c #1B1B1B",
"K 	c #1C1C1C",
"L 	c #1F231E",
"M 	c #315E2A",
"N 	c #50BA40",
"O 	c #5DDA4A",
"P 	c #57CB46",
"Q 	c #37752E",
"R 	c #1E201E",
"S 	c #232323",
"T 	c #294B23",
"U 	c #5CD749",
"V 	c #233E1E",
"W 	c #274523",
"X 	c #3C8331",
"Y 	c #38892C",
"Z 	c #4EC73B",
"[ 	c #4DC73B",
"] 	c #2C5F26",
"^ 	c #3B7F30",
"_ 	c #32682B",
"` 	c #1E2C1D",
"a 	c #3D8932",
"b 	c #55C644",
"c 	c #45AC36",
"d 	c #38A528",
"e 	c #3CB129",
"f 	c #3BB129",
"g 	c #3AA729",
"h 	c #49B039",
"i 	c #58CF46",
"j 	c #4EB63F",
"k 	c #1F331D",
"l 	c #1C251A",
"m 	c #4DB83C",
"n 	c #57D344",
"o 	c #4DBF3C",
"p 	c #2E941F",
"q 	c #299918",
"r 	c #299A18",
"s 	c #2F8D20",
"t 	c #59D546",
"u 	c #264621",
"v 	c #1E321A",
"w 	c #3DA52D",
"x 	c #45BC32",
"y 	c #3BA92B",
"z 	c #247817",
"{ 	c #257C18",
"| 	c #348D27",
"} 	c #47BF35",
"~ 	c #47BF34",
" !	c #47BE34",
"!!	c #244C1E",
"#!	c #1B1D1A",
"$!	c #306029",
"%!	c #328C23",
"&!	c #33A621",
"'!	c #33A521",
"(!	c #32A520",
")!	c #31A01F",
"*!	c #41A731",
"+!	c #57D345",
",!	c #4AB639",
"-!	c #319721",
".!	c #35A823",
"0!	c #34A823",
"1!	c #309720",
"2!	c #191E18",
"3!	c #264422",
"4!	c #4DB93D",
"5!	c #288819",
"6!	c #1F8610",
"7!	c #248515",
"8!	c #257918",
"9!	c #41B430",
":!	c #45BD33",
";!	c #45BB33",
"<!	c #2C881D",
"=!	c #207F11",
">!	c #218B10",
"?!	c #218312",
"@!	c #2C7521",
"A!	c #24441F",
"B!	c #285521",
"C!	c #49BC38",
"D!	c #369927",
"E!	c #44B533",
"F!	c #2E8021",
"G!	c #31A120",
"H!	c #3B9A2C",
"I!	c #39992A",
"J!	c #56CB44",
"K!	c #5DD94A",
"L!	c #51BB40",
"M!	c #1D2A1B",
"N!	c #1D3519",
"O!	c #349724",
"P!	c #3BB029",
"Q!	c #379D26",
"R!	c #4A5018",
"S!	c #1C6910",
"T!	c #20840E",
"U!	c #1B6A0E",
"V!	c #215F17",
"W!	c #4FC53C",
"X!	c #52CC3F",
"Y!	c #52CB3F",
"Z!	c #20341C",
"[!	c #191D19",
"]!	c #1F6215",
"^!	c #299817",
"_!	c #299917",
"`!	c #205B14",
"a!	c #956823",
"b!	c #182116",
"c!	c #444113",
"d!	c #181A18",
"e!	c #365C1E",
"f!	c #3DAE2B",
"g!	c #3FB52D",
"h!	c #369627",
"i!	c #1C2A1B",
"j!	c #181E17",
"k!	c #14360F",
"l!	c #13460A",
"m!	c #142E10",
"n!	c #191F17",
"o!	c #9F6A28",
"p!	c #4C361A",
"q!	c #664720",
"r!	c #211E1A",
"s!	c #4B4319",
"t!	c #257D17",
"u!	c #2C9D1A",
"v!	c #1C5514",
"w!	c #735022",
"x!	c #B7782A",
"y!	c #49351A",
"z!	c #724E20",
"{!	c #27211A",
"|!	c #172714",
"}!	c #14450C",
"~!	c #13500A",
" #	c #163D10",
"!#	c #191D18",
"##	c #624420",
"$#	c #D38A2F",
"%#	c #BD7C2B",
"&#	c #43331F",
"'#	c #604727",
"(#	c #CB852D",
")#	c #7C5728",
"*#	c #604B30",
"+#	c #C3802B",
",#	c #5B4830",
"-#	c #4D4D4D",
".#	c #635039",
"0#	c #BB7A2A",
"1#	c #4D473F",
"2#	c #484848",
"3#	c #5C5C5C",
"4#	c #6F593F",
"5#	c #B37428",
"6#	c #55524F",
"7#	c #6B6B6B",
"8#	c #795F41",
"9#	c #A56A24",
":#	c #646362",
";#	c #7A7A7A",
"<#	c #806441",
"=#	c #976222",
">#	c #757575",
"?#	c #898989",
"@#	c #83643F",
"A#	c #8B5B22",
"B#	c #878787",
"C#	c #999999",
"D#	c #836541",
"E#	c #915D1F",
"F#	c #898581",
"G#	c #A8A8A8",
"H#	c #A7A8A7",
"I#	c #826847",
"J#	c #8C5A1E",
"K#	c #8A7F70",
"L#	c #B6B6B6",
"M#	c #B5B6B5",
"N#	c #AAB2A9",
"O#	c #9EAD9C",
"P#	c #93A590",
"Q#	c #899D86",
"R#	c #81967E",
"S#	c #71603A",
"T#	c #84551C",
"U#	c #71633E",
"V#	c #859982",
"W#	c #8EA18B",
"X#	c #98A996",
"Y#	c #A4AFA2",
"Z#	c #B2B5B1",
"[#	c #C6C6C6",
"]#	c #B7C0B6",
"^#	c #A8B8A6",
"_#	c #99AC96",
"`#	c #899E86",
"a#	c #798B76",
"b#	c #687766",
"c#	c #544C3A",
"d#	c #5C472D",
"e#	c #584D34",
"f#	c #70806D",
"g#	c #82967F",
"h#	c #92A68F",
"i#	c #A1B29E",
"j#	c #B1BDAF",
"k#	c #C1C5C1",
"l#	c #434343",
"m#	c #D5D5D5",
"n#	c #CDD2CC",
"o#	c #BECABC",
"p#	c #B2C2AF",
"q#	c #A8BBA5",
"r#	c #9FB39C",
"s#	c #9AAE97",
"t#	c #99AD96",
"u#	c #9CB099",
"v#	c #A3B6A0",
"w#	c #ADBFAA",
"x#	c #B7C6B5",
"y#	c #C6CFC5",
"z#	c #D2D4D2",
"{#	c #464646",
"|#	c #E4E4E4",
"}#	c #EAEAEA",
"~#	c #F3F3F3",
" $	c #5B5B5B",
"!$	c #5A5A5A",
"! # $ $ $ % % % % % & & & ' ' ' ' ' ( ( ( ( ( ) ) ) * * * * + ! ",
", - - . . 0 1 1 2 2 3 4 4 5 6 6 6 6 7 8 8 9 9 : ; ; < = = > = , ",
"? + + @ A A B B B C C $ % % & D E F G ) * * H H H - - . . 0 1 I ",
"! ! ! ! ! ! ! ! ! J K K ? L M N O P Q R I I # S S + @ @ A A B ? ",
"! ! ! ! ! ! ! ! ! ! ! ! ! T O O O O U V ! ! ! ! ! ! ! ! ! ! ! ! ",
"! ! ! ! ! ! ! ! ! ! ! W X Y Z Z Z Z [ ] ^ _ ` ! ! ! ! ! ! ! ! ! ",
"! ! ! ! ! ! ! ! ! ! a b O c d e f g h i O O j k ! ! ! ! ! ! ! ! ",
"! ! ! ! ! ! ! ! ! l m n n o p q r s t t t t t u ! ! ! ! ! ! ! ! ",
"! ! ! ! ! ! ! ! ! v w x x x y z { | } ~ ~  ! !!!! ! ! ! ! ! ! ! ",
"! ! ! ! ! ! ! ! #!$!%!&!'!(!)!*!+!,!-!.!.!0!1!2!! ! ! ! ! ! ! ! ",
"! ! ! ! ! ! ! ! 3!O 4!5!6!7!8!9!:!;!<!=!>!?!@!A!! ! ! ! ! ! ! ! ",
"! ! ! ! ! ! ! ! B![ [ C!D!E!F!&!&!&!G!H!I!J!K!L!M!! ! ! ! ! ! ! ",
"! ! ! ! ! ! ! ! N!O!P!P!P!Q!R!S!T!U!V!W!X!X!X!Y!Z!! ! ! ! ! ! ! ",
"! ! ! ! ! ! ! ! [!]!^!_!^!`!a!b!c!d!e!f!g!g!g!h!i!! ! ! ! ! ! ! ",
"! ! ! ! ! ! ! ! ! j!k!l!m!n!o!p!q!r!s!t!u!u!u!v!! ! ! ! ! ! ! ! ",
"! ! ! ! ! ! ! ! ! ! ! ! ! ! w!x!y!z!{!|!}!~! #!#! ! ! ! ! ! ! ! ",
"! ! ! ! ! ! ! ! ! J K ? , , ##$#%#&#, , ? K J ! ! ! ! ! ! ! ! ! ",
"! ! ! ! ! J # $ ) * * * * * '#(#)#* * * * * * * & @ , ! ! ! ! ! ",
"! ! ! + 0 : ; ; ; ; ; ; ; ; *#+#,#; ; ; ; ; ; ; ; ; ; 5 $ J ! ! ",
"! @ = -#-#-#-#-#-#-#-#-#-#-#.#0#1#-#-#-#-#-#-#-#-#-#-#-#-#2#- K ",
"B 3#3#3#3#3#3#3#3#3#3#3#3#3#4#5#6#3#3#3#3#3#3#3#3#3#3#3#3#3#3#$ ",
"' 7#7#7#7#7#7#7#7#7#7#7#7#7#8#9#:#7#7#7#7#7#7#7#7#7#7#7#7#7#7#' ",
"* ;#;#;#;#;#;#;#;#;#;#;#;#;#<#=#>#;#;#;#;#;#;#;#;#;#;#;#;#;#;#* ",
". ?#?#?#?#?#?#?#?#?#?#?#?#?#@#A#B#?#?#?#?#?#?#?#?#?#?#?#?#?#?#. ",
"3 C#C#C#C#C#C#C#C#C#C#C#C#C#D#E#F#C#C#C#C#C#C#C#C#C#C#C#C#C#C#3 ",
"6 G#G#G#G#G#G#G#G#G#G#G#G#H#I#J#K#G#G#G#G#G#G#G#G#G#G#G#G#G#G#6 ",
"9 L#L#L#L#L#L#L#M#N#O#P#Q#R#S#T#U#V#W#X#Y#Z#L#L#L#L#L#L#L#L#L#9 ",
"= [#[#[#[#[#[#[#]#^#_#`#a#b#c#d#e#f#g#h#i#j#k#[#[#[#[#[#[#[#[#= ",
"l#m#m#m#m#m#m#m#m#n#o#p#q#r#s#t#u#v#w#x#y#z#m#m#m#m#m#m#m#m#m#l#",
"{#|#|#|#|#|#|#|#|#|#|#|#|#|#|#|#|#|#|#|#|#|#|#|#|#|#|#|#|#|#|#{#",
"B }#~#~#~#~#~#~#~#~#~#~#~#~#~#~#~#~#~#~#~#~#~#~#~#~#~#~#~#~#}#B ",
"! *  $ $ $ $ $ $ $ $ $ $ $ $ $ $ $ $ $ $ $ $ $ $ $ $ $ $ $!$) ! "};