/* XPM */ 
static const char * bt_terrain_up_xpm[] = {
"32 32 236 2",
"  	c None",
"! 	c #1A1A1A",
"# 	c #222222",
"$ 	c #292929",
"% 	c #2A2A2A",
"& 	c #2B2B2B",
"' 	c #2C2C2C",
"( 	c #2D2D2D",
") 	c #2E2E2E",
"* 	c #2F2F2F",
"+ 	c #242424",
", 	c #1E1E1E",
"- 	c #313131",
". 	c #323232",
"0 	c #333333",
"1 	c #343434",
"2 	c #353535",
"3 	c #363636",
"4 	c #373737",
"5 	c #383838",
"6 	c #393939",
"7 	c #717171",
"8 	c #3A3A3A",
"9 	c #3B3B3B",
": 	c #3C3C3C",
"; 	c #3D3D3D",
"< 	c #3E3E3E",
"= 	c #3F3F3F",
"> 	c #404040",
"? 	c #414141",
"@ 	c #1D1D1D",
"A 	c #252525",
"B 	c #262626",
"C 	c #272727",
"D 	c #282828",
"E 	c white",
"F 	c #303030",
"G 	c #212121",
"H 	c #1B1B1B",
"I 	c #1C1C1C",
"J 	c #1F1F1F",
"K 	c #202020",
"L 	c #232323",
"M 	c #BCBCBC",
"N 	c #D0D0D0",
"O 	c #BDBDBD",
"P 	c #787878",
"Q 	c #7C7C7C",
"R 	c #D6D6D6",
"S 	c #DBDBDB",
"T 	c #565656",
"U 	c #5A5A5A",
"V 	c #777777",
"W 	c #19221A",
"X 	c #1B2E18",
"Y 	c #1A2A19",
"Z 	c #191D1B",
"[ 	c #1A221A",
"] 	c #234B12",
"^ 	c #2D680C",
"_ 	c #357909",
"` 	c #357A08",
"a 	c #357908",
"b 	c #31710B",
"c 	c #285C0F",
"d 	c #1E3816",
"e 	c #191A1A",
"f 	c #203F15",
"g 	c #327509",
"h 	c #367E06",
"i 	c #377E07",
"j 	c #367D07",
"k 	c #377D08",
"l 	c #2A620F",
"m 	c #1A2918",
"n 	c #1F4115",
"o 	c #357E05",
"p 	c #368005",
"q 	c #367F05",
"r 	c #377F06",
"s 	c #378007",
"t 	c #377F07",
"u 	c #388008",
"v 	c #2F6F0B",
"w 	c #1B2A18",
"x 	c #1E3B16",
"y 	c #368104",
"z 	c #378205",
"{ 	c #378105",
"| 	c #378206",
"} 	c #388207",
"~ 	c #30700C",
" !	c #1A1E1A",
"!!	c #317408",
"#!	c #368203",
"$!	c #378304",
"%!	c #368204",
"&!	c #378305",
"'!	c #378405",
"(!	c #7DAF5C",
")!	c #388506",
"*!	c #388406",
"+!	c #398507",
",!	c #3A8607",
"-!	c #234C13",
".!	c #1A2919",
"0!	c #1C2F19",
"1!	c #21341E",
"2!	c #2B531B",
"3!	c #378404",
"4!	c #388505",
"5!	c #398606",
"6!	c #398706",
"7!	c #66A33F",
"8!	c #FEFFFE",
"9!	c #67A440",
":!	c #3C8908",
";!	c #3D8A09",
"<!	c #3F8C0B",
"=!	c #3B830E",
">!	c #263D23",
"?!	c #233620",
"@!	c #1E311B",
"A!	c #2D6B0D",
"B!	c #3A8906",
"C!	c #3C8B08",
"D!	c #408F0C",
"E!	c #42910E",
"F!	c #43910E",
"G!	c #398605",
"H!	c #388504",
"I!	c #3A8706",
"J!	c #D6E6CB",
"K!	c #D7E7CC",
"L!	c #3E8C0A",
"M!	c #3E8D0A",
"N!	c #408E0B",
"O!	c #42920D",
"P!	c #43930E",
"Q!	c #41910C",
"R!	c #3E8E09",
"S!	c #3B8B06",
"T!	c #2D6C0C",
"U!	c #30710F",
"V!	c #44940E",
"W!	c #469610",
"X!	c #45950F",
"Y!	c #3E8D09",
"Z!	c #3B8A07",
"[!	c #84B664",
"]!	c #87B866",
"^!	c #45960F",
"_!	c #469710",
"`!	c #45970F",
"a!	c #44960E",
"b!	c #347512",
"c!	c #40821E",
"d!	c #499B12",
"e!	c #4B9B15",
"f!	c #D1E5C3",
"g!	c #E4F0DC",
"h!	c #4C9D16",
"i!	c #489C11",
"j!	c #499C11",
"k!	c #40821D",
"l!	c #438620",
"m!	c #4B9F13",
"n!	c #4A9F12",
"o!	c #55A521",
"p!	c #56A521",
"q!	c #4B9F12",
"r!	c #4BA012",
"s!	c #42871F",
"t!	c #468B23",
"u!	c #4DA314",
"v!	c #4CA213",
"w!	c #4DA313",
"x!	c #58A922",
"y!	c #4CA312",
"z!	c #458A21",
"{!	c #488E24",
"|!	c #4DA513",
"}!	c #4EA613",
"~!	c #58AB21",
" #	c #4DA512",
"!#	c #4DA612",
"##	c #4CA611",
"$#	c #488F23",
"%#	c #4C9327",
"&#	c #4FA813",
"'#	c #4EA812",
"(#	c #59AE21",
")#	c #4DA811",
"*#	c #4EA811",
"+#	c #4B9325",
",#	c #4E9627",
"-#	c #4FAA12",
".#	c #4EAA11",
"0#	c #4DA910",
"1#	c #85C45B",
"2#	c #4EAA10",
"3#	c #4DAA0F",
"4#	c #4C9525",
"5#	c #509928",
"6#	c #4EAB10",
"7#	c #4DAB0F",
"8#	c #4DAB0E",
"9#	c #4F9926",
":#	c #529C29",
";#	c #4DAC0E",
"<#	c #4CAC0D",
"=#	c #4CAB0C",
">#	c #4CAC0C",
"?#	c #4BAC0B",
"@#	c #4F9A26",
"A#	c #434343",
"B#	c #519D28",
"C#	c #4CAC0B",
"D#	c #4BAC0A",
"E#	c #4AAC09",
"F#	c #49AB08",
"G#	c #4AAC08",
"H#	c #509D26",
"I#	c #464646",
"J#	c #53A029",
"K#	c #49AC07",
"L#	c #48AB06",
"M#	c #47AB05",
"N#	c #47AB04",
"O#	c #4F9E25",
"P#	c #92B685",
"Q#	c #8CB879",
"R#	c #8CB878",
"S#	c #8CB978",
"T#	c #92B785",
"U#	c #5B5B5B",
"! # $ $ $ % % % % % & & & ' ' ' ' ' ( ( ( ( ( ) ) ) * * * * + ! ",
", - - . . 0 1 1 2 2 3 4 4 5 6 7 6 6 8 9 9 : : ; < < = > > ? > , ",
"@ + + A B B C C C D D $ % % 4 E 5 ( ( ) * * F F F - - . . 0 1 G ",
"! ! ! ! ! ! ! ! ! H I I @ , ' E ' J K K G G # L L + A A B B C @ ",
"! ! ! ! ! ! ! ! ! ! ! ! ! ! D E D ! ! ! ! ! ! ! ! ! ! ! ! ! ! ! ",
"! ! ! ! ! ! ! ! ! ! ! ! ! ! D E D ! ! ! ! ! ! ! ! ! ! ! ! ! ! ! ",
"! ! ! ! ! ! ! ! ! ! ! ! , M N E N O , ! ! ! ! ! ! ! ! ! ! ! ! ! ",
"! ! ! ! ! ! ! ! ! ! ! ! ! P E E E Q ! ! ! ! ! ! ! ! ! ! ! ! ! ! ",
"! ! ! ! ! ! ! ! ! ! ! ! ! @ R E S , ! ! ! ! ! ! ! ! ! ! ! ! ! ! ",
"! ! ! ! ! ! ! ! ! ! ! ! ! ! T E U ! ! ! ! ! ! ! ! ! ! ! ! ! ! ! ",
"! ! ! ! ! ! ! ! ! ! ! ! ! ! ! V ! ! ! ! ! ! ! ! ! ! ! ! ! ! ! ! ",
"! ! ! ! ! ! ! ! ! ! ! ! ! ! W X Y Z ! ! ! ! ! ! ! ! ! ! ! ! ! ! ",
"! ! ! ! ! ! ! ! ! ! ! [ ] ^ _ ` a b c d e ! ! ! ! ! ! ! ! ! ! ! ",
"! ! ! ! ! ! ! ! ! ! f g h h i i j k k k l m ! ! ! ! ! ! ! ! ! ! ",
"! ! ! ! ! ! ! ! ! n o p q q r r s s t u u v w ! ! ! ! ! ! ! ! ! ",
"! ! ! ! ! ! ! ! x p y y y z z { | | } } } } ~ [ ! ! ! ! ! ! ! ! ",
"! ! ! ! ! ! !  !!!#!#!$!%!&!'!(!)!*!+!+!+!+!,!-!! ! ! ! ! ! ! ! ",
"! .!X X X 0!1!2!3!3!3!4!5!6!7!8!9!:!;!;!<!<!<!=!>!?!@!X X X .!! ",
"! A!B!C!D!E!F!F!G!H!G!G!I!:!J!E K!L!M!N!O!P!P!P!P!P!P!Q!R!S!T!! ",
"! U!V!W!W!W!W!W!X!Q!Y!Z!B![!E E E ]!Q!^!_!_!_!_!`!`!`!`!`!a!b!I ",
"C c!d!d!d!d!d!d!d!d!d!d!e!f!g!E g!f!h!i!i!i!i!i!i!i!i!j!j!j!k!$ ",
"' l!m!m!m!m!m!n!n!n!n!n!n!n!o!E p!q!q!q!q!q!r!r!r!r!r!r!r!r!s!' ",
"* t!u!v!v!v!v!v!v!v!w!w!w!w!x!E x!w!y!y!y!y!y!y!y!y!y!y!y!y!z!* ",
". {!|!|!|!|!}!}!}!}!}!}!}!}!~!E ~! # # # #!#!#!#!#!#!#!#####$#. ",
"3 %#&#&#&#&#&#&#&#'#'#'#'#'#(#E (#)#)#)#)#)#)#)#*#*#*#*#*#*#+#3 ",
"6 ,#-#-#-#.#.#.#.#.#.#.#0#0#0#1#0#0#0#0#2#2#2#2#2#2#2#3#3#3#4#6 ",
": 5#6#6#6#6#6#6#7#7#7#7#7#7#7#8#8#8#8#8#8#8#8#8#8#8#8#8#8#8#9#: ",
"> :#;#;#<#<#<#<#<#<#<#=#=#=#=#=#=#=#=#>#>#>#>#>#>#>#?#?#?#?#@#> ",
"A#B#C#C#C#C#C#D#D#D#D#D#D#D#E#E#E#E#E#E#E#E#F#F#F#F#F#F#F#G#H#A#",
"I#J#K#K#K#K#K#K#K#K#L#L#L#L#L#L#L#M#M#M#M#M#M#M#M#N#N#N#N#N#O#I#",
"C P#Q#Q#Q#R#R#R#R#R#R#R#R#R#R#R#R#R#R#R#R#R#R#R#R#R#R#R#S#S#T#C ",
"! * U#U#U#U#U#U#U#U#U#U#U#U#U#U#U#U#U#U#U#U#U#U#U#U#U#U#U#U ) ! "};